<svg xmlns="http://www.w3.org/2000/svg" viewBox="0 0 1455 211" xmlns:v="https://vecta.io/nano"><path d="M1940 .3V0h-.7 0l-6.9 11.9h0l-6.2 10.8-6.4-11.1h0l6.7-11.6h-27.7 0l-6.9 11.9h0l-6.2 10.8-6.4-11.1h0L1886 0h-27.7 0l-6.9 11.9h0l-6.2 10.8-6.4-11.1h0l6.7-11.6h-27.7 0l-6.9 11.9h0l-6.2 10.8-6.4-11.1h0L1805 0h-27.7 0l-6.9 11.9h0l-6.2 10.8-6.4-11.1h0l6.7-11.6h-27.7 0l-6.9 11.9h0l-6.2 10.8-6.4-11.1h0L1724 0h-27.8 0l-6.9 11.9h0l-6.2 10.7-6.3-11h0l6.7-11.6h-27.8 0l-6.9 11.9h0l-6.2 10.7-6.3-11-.1-.1 5.1-9 1.3-2.3h.1l.1-.2H1615h0l-6.9 11.9h0l-6.2 10.8-6.4-11.1h0l6.7-11.6h-27.7 0l-6.9 11.9h0l-6.2 10.8-6.4-11.1h0l6.7-11.6H1534h0l-6.9 11.9h0l-6.2 10.8-6.4-11.1h0l6.7-11.6h-27.7 0l-6.9 11.9h0l-6.2 10.8-6.4-11.1h0l8-11.6h-27.8 0l-6.9 11.9h0l-6.2 10.7-6.3-11h0l6.7-11.6h-27.8 0l-6.9 11.9h0l-6.2 10.7-6.3-11-.1-.1 5.2-9 1.3-2.3h.1l.1-.2h-27.8 0l-6.9 11.9h0l-6.2 10.8-6.4-11.1h0l6.7-11.6H1333h0l-6.9 11.9h0l-6.2 10.8-6.4-11.1h0l6.7-11.6h-27.7 0l-6.9 11.9h0l-6.2 10.8-6.4-11.1h0l6.7-11.6H1252h0l-6.9 11.9h0l-6.2 10.8-6.4-11.1h0l6.7-11.6h-27.7 0l-6.9 11.9h0l-6.2 10.8-6.4-11.1h0l6.7-11.6H1171h0l-6.9 11.9h0l-6.2 10.8-6.4-11.1-.1-.1 5.1-9 1.3-2.3h.1l.1-.2h-27 0l-6.9 11.9h0l-6.3 10.9-6.4-11.2h0l6.7-11.6h-27.5 0l-6.9 11.9h0l-6.3 10.9-6.4-11.2h0l6.7-11.6h-27.5 0l-6.9 11.9h0l-6.3 10.9-6.4-11.2h0l6.7-11.6h-27.5 0l-6.9 11.9h0l-6.3 10.9-6.4-11.2h0L996.9 0H970h-.1-.6 0l-6.9 11.9h0l-6.2 10.8-6.4-11.1h0L956.5 0h-27.7 0L922 11.9h0l-6.2 10.8-6.4-11.1h0L916.1 0h-27.7 0l-6.9 11.9h0l-6.2 10.8-6.3-11.1h0L875.7 0H848h0l-6.9 11.9h0L835 22.7l-6.4-11.1h0L835.3 0h-27.7 0l-6.9 11.9h0l-6.2 10.8-6.4-11.1h0L794.9 0h-27.7 0l-6.9 11.9h0l-6.2 10.8-6.4-11.1h0L754.5 0h-27.8 0l-6.9 11.9h0l-6.2 10.7-6.3-11h0L714.1 0h-27.8 0l-6.9 11.9h0l-6.2 10.7-6.3-11-.1-.1 5.1-9 1.3-2.3h.1l.1-.2h-27.8 0l-6.9 11.9h0l-6.2 10.8-6.4-11.1h0L633.2 0h-27.7 0l-6.9 11.9h0l-6.2 10.8-6.4-11.1h0L592.8 0h-27.7 0l-6.9 11.9h0L552 22.7l-6.4-11.1h0L552.4 0h-27.7 0l-6.9 11.9h0l-6.2 10.8-6.4-11.1h0L512 0h-27.8 0l-6.9 11.9h0l-6.2 10.7-6.3-11h0L471.6 0h-27.8 0l-6.9 11.9h0l-6.2 10.7-6.3-11-.1-.1 5.2-9 1.3-2.3h.1l.1-.2h-27.8 0l-6.9 11.9h0l-6.2 10.8-6.1-11.1h0L390.7 0H363h0l-6.9 11.9h0l-6.2 10.8-6.4-11.1h0L350.3 0h-27.7 0l-6.9 11.9h0l-6.2 10.8-6.4-11.1h0L309.9 0h-27.7 0l-6.9 11.9h0l-6.2 10.8-6.4-11.1h0L269.5 0h-27.7 0l-6.9 11.9h0l-6.2 10.8-6.4-11.1h0L229.1 0h-27.7 0l-6.9 11.9h0l-6.2 10.8-6.3-11.1-.1-.1 5.1-9 1.3-2.3h.1l.1-.2H161h0l-6.9 11.9h0l-6.3 10.9-6.4-11.2h0L148.1 0h-27.5 0l-6.9 11.9h0l-6.3 10.9-6.4-11.2h0L107.7 0H80.2h0l-6.9 11.9h0L67 22.8l-6.4-11.2h0L67.3 0H39.8h0l-6.9 11.9h0l-6.3 10.9-6.4-11.2h0L26.9 0h-27v.3h26.2l-6.4 11.1H-.1v.6h6.4l6.4 11.1H-.1v.5h12.7L6.2 34.8H-.1v.5h6l-6 10.5v1.6l6.3 11.1h0l.1.1.1.4h0l6.3 10.9H-.1v.8h26.2l-6.4 11.1H-.1v.6h6.4l6.4 11.1H-.1v.5h12.7l-6.4 11.1H-.1v.6h6l-6 10.5v1.6l6.3 11.1h0l.1.1.2.4h0l6.3 10.9H-.1v.7h26.2l-6.4 11.1H-.1v.6h6.4l6.4 11.1H-.1v.5h12.7l-6.4 11.1H-.2v.7h6l-6 10.5v1.6l6.3 11.1h0l.1.1.2.4h0l6.3 10.9H-.1v.4H27l.1-.2H27l6.3-10.9 6.5 11.2h27.5l.1-.2h-.1l6.3-10.9 6.5 11.2h27.5l.1-.2h-.1l6.3-10.9 6.5 11.2h27.5l.1-.2h-.1l6.3-10.9L161 211h27.6l6.4-11 6.4 11h27.7l.1-.2h-.1l6.2-10.8 6.4 11h27.7l.1-.2h-.1l6.2-10.8 6.4 11h27.7l.1-.2h-.1l6.2-10.8 6.4 11H350l.1-.2h-.1l6.2-10.8 6.4 11h27.7l.1-.2h-.1L397 200l6.4 11h27.7l6.3-10.9 6.4 10.9h27.8l.1-.2h-.1l6.2-10.7 6.4 10.9H512l.1-.2h-.1l6.2-10.8 6.4 11h27.7l.1-.2h-.1l6.2-10.8 6.4 11h27.7l.1-.2h-.1l6.2-10.8 6.4 11h27.7l.1-.2h-.1l6.2-10.8 6.4 11h27.7l6.3-10.9 6.4 10.9h27.8l.1-.2h-.1l6.2-10.7 6.4 10.9h27.8l.1-.2h-.1l6.2-10.8 6.4 11h27.7l.1-.2h.5l6.2-10.8 6.4 11h27.7l.1-.2h-.1l6.2-10.8 6.4 11h27.7l.1-.2h-.1L882 200l6.4 11h27.7l.1-.2h-.1l6.2-10.8 6.4 11h27.7l.1-.2h-.1l6.2-10.8 6.4 11h.6.1 27l.1-.2h.2l6.3-10.9 6.5 11.2h27.5l.1-.2h-.1l6.3-10.9 6.5 11.2h27.5l.1-.2h-.1l6.3-10.9 6.5 11.2h27.5l.1-.2h-.1l6.3-10.9 6.5 11.2h27.6l6.4-11 6.4 11h27.7l.1-.2h-.1l6.2-10.8 6.4 11h27.7l.1-.2h-.1l6.2-10.8 6.4 11h27.7l.1-.2h-.1l6.2-10.8 6.4 11h27.7l.1-.2h-.1l6.2-10.8 6.4 11h27.7l.1-.2h-.1l6.2-10.8 6.4 11h27.7l6.3-10.9 6.4 10.9h27.8l.1-.2h-.1l6.2-10.7 6.4 10.9h27.8l.1-.2h-.1l6.2-10.8 6.4 11h27.7l.1-.2h-.1l6.2-10.8 6.4 11h27.7l.1-.2h-.1l6.2-10.8 6.4 11h27.7l.1-.2h-.1l6.2-10.8 6.4 11h27.7l6.3-10.9 6.4 10.9h27.8l.1-.2h-.1l6.2-10.7 6.4 10.9h27.8l.1-.2h-.1l6.2-10.8 6.4 11h27.7l.1-.2h-.1l6.2-10.8 6.4 11h27.7l.1-.2h-.1l6.2-10.8 6.4 11h27.7l.1-.2h-.1l6.2-10.8 6.4 11h27.7l.1-.2h-.1l6.2-10.8 6.4 11h27.7l.1-.2h-.1l6.2-10.8 6.4 11h.7v-.4h-.1l-13.2-22.8h13l.3.6v-2.1l-.6 1h-26.2l6.4-11.1h20.3v-.7h-6.6l6.4-11.1h.2v-.5h-.2l-6.4-11.1h6.6v-.6h-6.6l6.4-11.1h.2v-.7h-.1l-13.2-22.8h13l.3.6v-2.1l-.6 1h-26.2l6.4-11.1h20.3v-.6h-6.6l6.4-11.1h.2v-.5h-.2l-6.4-11.1h6.6v-.6h-6.6l6.4-11.1h.2v-.8h-.1L1926.7 47h13l.3.6v-2.1l-.6 1h-26.2l6.4-11.1h0 20.3v-.5h-6.6l6.4-11.1h.2v-.5h-.2l-6.4-11.1h6.6v-.6h-6.6l6.4-11.1h.3zm-40.6 0h26.1l-6.4 11.1H1893l6.4-11.1zm6.4 11.7l6.4 11.1h-12.8L1893 12h12.8zm-.1 46.6l.2.4h0l6.3 10.9h-12.8L1886.3 47h12.9l6.5 11.4h0v.2zm0 70.4l.2.4h0l6.3 10.9h-12.8l-13.2-22.8h12.9l6.5 11.4h0l.1.1zm-33.9 58.8l-6.2 10.8-6.4-11.1h0l6.8-11.8h-.1l6.3-10.8 6.4 11.1-6.8 11.8h0zm-40.4 0l-6.2 10.8-6.4-11.1h0l6.8-11.8h-.1l6.3-10.8 6.4 11.1-6.8 11.8h0zm-40.4 0l-6.2 10.8-6.4-11.1h0l6.8-11.8h-.1l6.3-10.8 6.4 11.1-6.8 11.8h0zm-40.4 0l-6.2 10.8-6.4-11.1h0l6.8-11.8h-.1l6.3-10.8 6.4 11.1-6.8 11.8h0zm-40.4 0l-6.2 10.8-6.4-11.1h0l6.8-11.8h-.1l6.3-10.8 6.4 11.1-6.8 11.8h0zm-40.5 0l-6.2 10.7-6.3-11h0l6.8-11.8h-.1l6.2-10.7 6.4 11-6.8 11.8h0zm-40.4 0l-6.2 10.7-6.3-11-.1-.1 4.9-8.5 1.9-3.2h0l6.2-10.8 6.4 11.1-6.8 11.8h0zm-40.4 0l-6.2 10.8-6.4-11.1h0l6.8-11.8h-.1l6.3-10.8 6.4 11.1-6.8 11.8h0zm-40.4 0l-6.2 10.8-6.4-11.1h0l6.8-11.8h-.1l6.3-10.8 6.4 11.1-6.8 11.8h0zm-40.4 0l-6.2 10.8-6.4-11.1h0l6.8-11.8h-.1l6.3-10.8 6.4 11.1-6.8 11.8h0zm-40.4 0l-6.2 10.8-6.4-11.1h0l6.8-11.8h-.1l6.3-10.8 6.4 11.1-6.8 11.8h0zm-40.5 0l-6.2 10.7-6.3-11h0l6.8-11.8h-.1l6.2-10.7 6.4 11-6.8 11.8h0zm-40.4 0l-6.2 10.7-6.3-11-.1-.1 4.9-8.5 1.9-3.2h0l6.2-10.8 6.4 11.1-6.8 11.8h0zm-40.4 0l-6.2 10.8-6.4-11.1h0l6.8-11.8h-.1l6.3-10.8 6.4 11.1-6.8 11.8h0zm-40.4 0l-6.2 10.8-6.4-11.1h0l6.8-11.8h-.1l6.3-10.8 6.4 11.1-6.8 11.8h0zm-40.4 0l-6.2 10.8-6.4-11.1h0l6.8-11.8h-.1l6.3-10.8 6.4 11.1-6.8 11.8h0zm-40.4 0l-6.2 10.8-6.4-11.1h0l6.8-11.8h-.1l6.3-10.8 6.4 11.1-6.8 11.8h0zm-40.4 0l-6.2 10.8-6.4-11.1h0l6.8-11.8h-.1l6.3-10.8 6.4 11.1-6.8 11.8h0zm-40.4 0l-6.2 10.8-6.4-11.1-.1-.1 4.9-8.5 1.9-3.2h0l6.3-10.9 6.5 11.2-6.9 11.8h0zm-40.4 0l-6.3 10.9-6.4-11.2h0l6.8-11.8h-.1l6.3-10.9 6.5 11.2-6.8 11.8h0zm-40.4 0l-6.3 10.9-6.4-11.2h0l6.8-11.8h-.1l6.3-10.9 6.5 11.2-6.8 11.8h0zm-40.4 0l-6.3 10.9-6.4-11.2h0l6.8-11.8h-.1l6.3-10.9 6.5 11.2-6.8 11.8h0zm-40.4 0l-6.3 10.9-6.4-11.2h0l6.8-11.8h-.1l6.3-10.9 6.5 11.2-6.8 11.8h0zm-13.4-.5h-26.2l6.4-11.1h20.2.1 5.9l-5.9 10.3v-.1l-.5.9zm-27.2.5l-6.2 10.8-6.4-11.1h0l6.8-11.8h-.1l6.3-10.8L949 176l-6.8 11.8h0zm-40.4 0l-6.2 10.8-6.4-11.1h0l6.8-11.8h0l6.3-10.8 6.4 11.1-6.9 11.8h0zm-40.4 0l-6.2 10.8-6.4-11.1h0l6.8-11.8h-.1l6.3-10.8 6.4 11.1-6.8 11.8h0zm-40.4 0l-6.2 10.8-6.4-11.1h0l6.8-11.8h-.1l6.3-10.8 6.4 11.1-6.8 11.8h0zm-40.4 0l-6.2 10.8-6.4-11.1h0l6.8-11.8h-.1l6.3-10.8 6.4 11.1-6.8 11.8h0zm-40.4 0l-6.2 10.8-6.4-11.1h0l6.8-11.8h-.1l6.3-10.8L747 176l-6.8 11.8h0zm-40.5 0l-6.2 10.7-6.3-11h0l6.8-11.8h0l6.2-10.7 6.4 11-6.9 11.8h0zm-40.4 0l-6.2 10.7-6.3-11-.1-.1 4.9-8.5 1.9-3.2h0l6.2-10.8 6.4 11.1-6.8 11.8h0zm-40.4 0l-6.2 10.8-6.4-11.1h0l6.8-11.8h-.1l6.3-10.8 6.4 11.1-6.8 11.8h0zm-40.4 0l-6.2 10.8-6.4-11.1h0l6.8-11.8h-.1l6.3-10.8 6.4 11.1-6.8 11.8h0zm-40.4 0l-6.2 10.8-6.4-11.1h0l6.8-11.8h-.1l6.3-10.8 6.4 11.1-6.8 11.8h0zm-40.4 0l-6.2 10.8-6.4-11.1h0l6.8-11.8h-.1l6.3-10.8 6.4 11.1-6.8 11.8h0zm-40.5 0l-6.2 10.7-6.3-11h0l6.8-11.8h-.1l6.2-10.7 6.4 11-6.8 11.8h0zm-40.4 0l-6.2 10.7-6.3-11-.1-.1 4.9-8.5 1.9-3.2h0l6.2-10.8 6.4 11.1-6.8 11.8h0zm-40.4 0l-6.2 10.8-6.4-11.1h0l6.8-11.8h-.1l6.3-10.8 6.4 11.1-6.8 11.8h0zm-40.4 0l-6.2 10.8-6.4-11.1h0l6.8-11.8h-.1l6.3-10.8 6.4 11.1-6.8 11.8h0zm-40.4 0l-6.2 10.8-6.4-11.1h0l6.8-11.8h-.1l6.3-10.8 6.4 11.1-6.8 11.8h0zm-40.4 0l-6.2 10.8-6.4-11.1h0l6.8-11.8h-.1l6.3-10.8L262 176l-6.8 11.8h0zm-40.4 0l-6.2 10.8-6.4-11.1h0l6.8-11.8h-.1l6.3-10.8 6.4 11.1-6.8 11.8h0zm-40.4 0l-6.2 10.8-6.4-11.1-.1-.1 4.9-8.5 1.9-3.2h0l6.3-10.9 6.5 11.2-6.9 11.8h0zm-40.4 0l-6.3 10.9-6.4-11.2h0l6.8-11.8h-.1l6.3-10.9 6.5 11.2-6.8 11.8h0zm-40.4 0l-6.3 10.9-6.4-11.2h0l6.8-11.8h-.1l6.3-10.9 6.5 11.2-6.8 11.8h0zm-40.4 0l-6.3 10.9-6.4-11.2h0l6.8-11.8h-.1l6.3-10.9L60 176l-6.8 11.8h0zm1612.6-32.2l-1.7-2.9h12.7l6.5 11.4h0l.1.1.2.4h0l6.3 10.9h-12.6l-6.6-11.4h0l-4.9-8.5zm-242.6 0l-1.7-2.9h12.7l6.5 11.4h0l.1.1.2.4h0l6.3 10.9h-12.6l-6.6-11.4h0l-4.9-8.5zm-242.5 0l-1.7-2.9h12.9l6.5 11.4h0l.1.1.2.4h0l6.3 10.9h-12.8l-6.6-11.4h0l-4.9-8.5zm-484.9 0l-1.7-2.9h12.7l6.5 11.4h0l.1.1.2.4h0l6.3 10.9h-12.6l-6.6-11.4h0l-4.9-8.5zm-242.6 0l-1.7-2.9h12.7l6.5 11.4h0l.1.1.2.4h0l6.3 10.9h-12.6l-6.6-11.4h0l-4.9-8.5zm-242.5 0l-1.7-2.9h12.9l6.5 11.4h0l.1.1.2.4h0l6.3 10.9h-12.8l-6.6-11.4h0l-4.9-8.5zM47.2 105.2l6.3-10.9 6.5 11.2-6.9 11.9h0l-6.3 10.9-6.4-11.2h0l6.8-11.9h0zm-.6-.1H33.8L40.3 94H53l-6.4 11.1zM87 58.6l.2.4h0l6.3 10.9H80.7L67.5 47h13L87 58.4h0v.2zm40.4 0l.2.4h0l6.3 10.9H121L107.9 47h13l6.5 11.4h0v.2zm40.4 0l.2.4h0l6.3 10.9h-12.8L148.4 47h12.9l6.5 11.4h0v.2zm40.4 0l.2.4h0l6.3 10.9H202L188.8 47h12.9l6.5 11.4h0v.2zm40.4 0l.2.4h0l6.3 10.9h-12.8L229.2 47h12.9l6.5 11.4h0v.2zm40.4 0l.2.4h0l6.3 10.9h-12.8L269.6 47h12.9l6.5 11.4h0v.2zm40.4 0l.2.4h0l6.3 10.9h-12.8L310 47h12.9l6.5 11.4h0v.2zm40.4 0l.2.4h0l6.3 10.9h-12.8L350.4 47h12.9l6.5 11.4h0v.2zm40.4 0l.2.4h0l6.3 10.9h-12.6L391 47h12.7l6.5 11.4h0v.2zm40.4 0l.2.4h0l6.3 10.9h-12.6L431.4 47h12.7l6.5 11.4h0v.2zm40.6 0l.2.4h0l6.3 10.9h-12.8L471.8 47h12.9l6.5 11.4h0v.2zm40.4 0l.2.4h0l6.3 10.9h-12.8L512.2 47H525l6.5 11.4h0l.1.2zm40.4 0l.2.4h0l6.3 10.9h-12.8L552.6 47h12.9l6.5 11.4h0v.2zm40.4 0l.2.4h0l6.3 10.9h-12.8L593 47h12.9l6.5 11.4h0v.2zm40.4 0l.2.4h0l6.3 10.9h-12.6L633.5 47h12.7l6.5 11.4h0l.1.2zm40.4 0l.2.4h0l6.3 10.9h-12.6L673.9 47h12.7l6.5 11.4h0l.1.2zm40.5 0l.2.4h0l6.3 10.9h-12.8L714.3 47h12.9l6.5 11.4h0v.2zm40.4 0l.2.4h0l6.3 10.9h-12.8L754.7 47h12.9l6.5 11.4h0v.2zm40.4 0l.2.4h0l6.3 10.9h-12.8L795.1 47H808l6.5 11.4h0v.2zm40.4 0l.2.4h0l6.3 10.9h-12.8L835.5 47h12.9l6.5 11.4h0v.2zm40.4 0l.2.4h0l6.3 10.9H889L875.9 47h12.9l6.5 11.4h0v.2zm40.4 0l.2.4h0l6.3 10.9h-12.8L916.3 47h12.9l6.5 11.4h0v.2zm34.3-11h0l6.2 10.8h0l.1.1.2.4h0l6.3 10.9H970h-.1 0L956.7 47h13l.3.6zm46.6 11l.2.4h0l6.3 10.9h-12.9L997.1 47h13l6.5 11.4h0v.2zm40.4 0l.2.4h0l6.3 10.9h-12.9L1037.5 47h13l6.5 11.4h0v.2zm40.4 0l.2.4h0l6.3 10.9H1091L1077.9 47h13l6.5 11.4h0v.2zm40.4 0l.2.4h0l6.3 10.9h-12.8L1118.4 47h12.9l6.5 11.4h0v.2zm40.4 0l.2.4h0l6.3 10.9H1172L1158.8 47h12.9l6.5 11.4h0v.2zm40.4 0l.2.4h0l6.3 10.9h-12.8L1199.2 47h12.9l6.5 11.4h0v.2zm40.4 0l.2.4h0l6.3 10.9h-12.8L1239.6 47h12.9l6.5 11.4h0v.2zm40.4 0l.2.4h0l6.3 10.9h-12.8L1280 47h12.9l6.5 11.4h0v.2zm40.4 0l.2.4h0l6.3 10.9h-12.8L1320.4 47h12.9l6.5 11.4h0v.2zm40.4 0l.2.4h0l6.3 10.9h-12.6L1361 47h12.7l6.5 11.4h0v.2zm40.4 0l.2.4h0l6.3 10.9h-12.6L1401.4 47h12.7l6.5 11.4h0v.2zm40.6 0l.2.4h0l6.3 10.9h-12.8L1441.8 47h12.9l6.5 11.4h0v.2zm40.4 0l.2.4h0l6.3 10.9h-12.8L1482.2 47h12.9l6.5 11.4h0v.2zm40.4 0l.2.4h0l6.3 10.9h-12.8L1522.6 47h12.9l6.5 11.4h0v.2zm40.4 0l.2.4h0l6.3 10.9h-12.8L1563 47h12.9l6.5 11.4h0v.2zm40.4 0l.2.4h0l6.3 10.9h-12.6L1603.5 47h12.7l6.5 11.4h0l.1.2zm40.4 0l.2.4h0l6.3 10.9h-12.6L1643.9 47h12.7l6.5 11.4h0l.1.2zm40.5 0l.2.4h0l6.3 10.9h-12.8L1684.3 47h12.9l6.5 11.4h0v.2zm40.4 0l.2.4h0l6.3 10.9h-12.8L1724.7 47h12.9l6.5 11.4h0v.2zm40.4 0l.2.4h0l6.3 10.9h-12.8L1765.1 47h12.9l6.5 11.4h0v.2zm40.4 0l.2.4h0l6.3 10.9h-12.8L1805.5 47h12.9l6.5 11.4h0v.2zm40.4 0l.2.4h0l6.3 10.9H1859L1845.9 47h12.9l6.5 11.4h0v.2zm0 70.4l.2.4h0l6.3 10.9H1859l-13.2-22.8h12.9l6.5 11.4h0l.1.1zm-13.7 23.6l-6.2 10.8-6.4-11.1h0l6.8-11.8h-.1l6.3-10.8 6.5 11.1-6.9 11.8h0zm-40.4 0l-6.2 10.8-6.4-11.1h0l6.8-11.8h-.1l6.3-10.8 6.5 11.1-6.9 11.8h0zm-40.4 0l-6.2 10.8-6.4-11.1h0l6.8-11.8h-.1l6.3-10.8 6.5 11.1-6.9 11.8h0zm-40.4 0l-6.2 10.8-6.4-11.1h0l6.8-11.8h-.1l6.3-10.8 6.5 11.1-6.9 11.8h0zm-40.5 0l-6.2 10.7-6.3-11h0l6.8-11.8h-.1l6.2-10.7 6.4 11-6.8 11.8h0zm-40.4 0l-6.2 10.7-6.3-11-.1-.1 5.1-9 1.4-2.5h0l6.4-11 6.4 11-6.7 11.9h0zm-40.4 0l-6.2 10.8-6.4-11.1h0l6.8-11.8h-.1l6.3-10.8 6.5 11.1-6.9 11.8h0zm-40.4 0l-6.2 10.8-6.4-11.1h0l6.8-11.8h-.1l6.3-10.8 6.5 11.1-6.9 11.8h0zm-40.4 0l-6.2 10.8-6.4-11.1h0l6.8-11.8h-.1l6.3-10.8 6.5 11.1-6.9 11.8h0zm-40.4 0l-6.2 10.8-6.4-11.1h0l6.8-11.8h-.1l6.3-10.8 6.5 11.1-6.9 11.8h0zm-40.5 0l-6.2 10.7-6.3-11h0l6.8-11.8h-.1l6.2-10.7 6.4 11-6.8 11.8h0zm-40.4 0l-6.2 10.7-6.3-11-.1-.1 5.1-9 1.4-2.5h0l6.4-11 6.4 11-6.7 11.9h0zm-40.4 0l-6.2 10.8-6.4-11.1h0l6.8-11.8h-.1l6.3-10.8 6.5 11.1-6.9 11.8h0zm-40.4 0l-6.2 10.8-6.4-11.1h0l6.8-11.8h-.1l6.3-10.8 6.5 11.1-6.9 11.8h0zm-40.4 0l-6.2 10.8-6.4-11.1h0l6.8-11.8h-.1l6.3-10.8 6.5 11.1-6.9 11.8h0zm-40.4 0l-6.2 10.8-6.4-11.1h0l6.8-11.8h-.1l6.3-10.8 6.5 11.1-6.9 11.8h0zm-40.4 0l-6.2 10.8-6.4-11.1h0l6.8-11.8h-.1l6.3-10.8 6.5 11.1-6.9 11.8h0zm-40.4 0l-6.2 10.8-6.4-11.1-.1-.1 5.1-9 1.4-2.5h0l6.4-11.2 6.5 11.1-6.7 12h0zm-40.4 0l-6.3 10.9-6.4-11.2h0l6.8-11.8h-.1l6.3-10.9 6.5 11.2-6.8 11.8h0zm-40.4 0l-6.3 10.9-6.4-11.2h0l6.8-11.8h-.1l6.3-10.9 6.5 11.2-6.8 11.8h0zm-40.4 0l-6.3 10.9-6.4-11.2h0l6.8-11.8h-.1l6.3-10.9 6.5 11.2-6.8 11.8h0zm-40.4 0l-6.3 10.9-6.4-11.2h0l6.8-11.8h-.1l6.3-10.9 6.5 11.2-6.8 11.8h0zm-40.6 0l-6.2 10.8-6.4-11.1h0l6.8-11.8h-.1l6.3-10.8 6.5 11.1-6.9 11.8h0zm-40.4 0l-6.2 10.8-6.4-11.1h0l6.8-11.8h-.1l6.3-10.8 6.5 11.1-6.9 11.8h0zm-40.4 0l-6.2 10.8-6.4-11.1h0l6.8-11.8h-.1l6.3-10.8 6.5 11.1-6.9 11.8h0zm-40.4 0l-6.2 10.8-6.4-11.1h0l6.8-11.8h-.1l6.3-10.8 6.5 11.1-6.9 11.8h0zm-40.4 0l-6.2 10.8-6.4-11.1h0l6.8-11.8h0l6.3-10.8 6.5 11.1-7 11.8h0zm-40.4 0l-6.2 10.8-6.4-11.1h0l6.8-11.8h-.1l6.3-10.8 6.5 11.1-6.9 11.8h0zm-40.5 0l-6.2 10.7-6.3-11h0l6.8-11.8h-.1l6.2-10.7 6.4 11-6.8 11.8h0zm-40.4 0l-6.2 10.7-6.3-11-.1-.1 5.1-9 1.4-2.5h0l6.4-11 6.4 11-6.7 11.9h0zm-40.4 0l-6.2 10.8-6.4-11.1h0l6.8-11.8h-.1l6.3-10.8 6.5 11.1-6.9 11.8h0zm-40.4 0l-6.2 10.8-6.4-11.1h0l6.8-11.8h-.1l6.3-10.8 6.5 11.1-6.9 11.8h0zm-40.4 0l-6.2 10.8-6.4-11.1h0l6.8-11.8h-.1l6.3-10.8 6.5 11.1-6.9 11.8h0zm-40.4 0l-6.2 10.8-6.4-11.1h0l6.8-11.8h-.1l6.3-10.8 6.5 11.1-6.9 11.8h0zm-40.5 0l-6.2 10.7-6.3-11h0l6.8-11.8h-.1l6.2-10.7 6.4 11-6.8 11.8h0zm-40.4 0l-6.2 10.7-6.3-11-.1-.1 5.1-9 1.4-2.5h0l6.4-11 6.4 11-6.7 11.9h0zm-40.4 0l-6.2 10.8-6.4-11.1h0l6.8-11.8h-.1l6.3-10.8 6.5 11.1-6.9 11.8h0zm-40.4 0l-6.2 10.8-6.4-11.1h0l6.8-11.8h-.1l6.3-10.8 6.5 11.1-6.9 11.8h0zm-40.4 0l-6.2 10.8-6.4-11.1h0l6.8-11.8h-.1l6.3-10.8 6.5 11.1-6.9 11.8h0zm-40.4 0l-6.2 10.8-6.4-11.1h0l6.8-11.8h-.1l6.3-10.8 6.5 11.1-6.9 11.8h0zm-40.4 0l-6.2 10.8-6.4-11.1h0l6.8-11.8h-.1l6.3-10.8 6.5 11.1-6.9 11.8h0zm-40.4 0l-6.2 10.8-6.4-11.1-.1-.1 5.1-9 1.4-2.5h0l6.4-11.2 6.5 11.1-6.7 12h0zm-40.4 0l-6.3 10.9-6.4-11.2h0l6.8-11.8h-.1l6.3-10.9 6.5 11.2-6.8 11.8h0zm-40.4 0l-6.3 10.9-6.4-11.2h0l6.8-11.8h-.1l6.3-10.9 6.5 11.2-6.8 11.8h0zm-26.2-47.4l6.3-10.9 6.5 11.2-6.9 11.9h0l-6.3 10.9-6.4-11.2h0l6.8-11.9h0zm-.6-.1H74.2L80.7 94h12.7L87 105.1zm20.2-11.2l.2.4h0l6.3 10.9h-12.9L87.7 82.3h13l6.5 11.4h0v.2zm40.4 0l.2.4h0l6.3 10.9h-12.9L128 82.4h13l6.5 11.4h0l.1.1zm40.4 0l.2.4h0l6.3 10.9h-12.7l-13.2-22.8h12.9l6.5 11.4h0v.1zm40.4 0l.2.4h0l6.3 10.9h-12.8l-6.6-11.4h0l-4.5-7.7-2.1-3.7h12.9l6.5 11.4h0l.1.1zm40.4 0l.2.4h0l6.3 10.9h-12.8l-13.2-22.8h12.9l6.5 11.4h0l.1.1zm40.4 0l.2.4h0l6.3 10.9H303l-13.2-22.8h12.9l6.5 11.4h0v.1zm40.4 0l.2.4h0l6.3 10.9h-12.8l-13.2-22.8H343l6.5 11.4h0l.1.1zm40.4 0l.2.4h0l6.3 10.9h-12.8l-13.2-22.8h12.9l6.5 11.4h0l.1.1zm40.4 0l.2.4h0l6.3 10.9h-12.6l-13.2-22.8h12.7l6.5 11.4h0l.1.1zm40.4 0l.2.4h0l6.3 10.9h-12.6l-6.6-11.4h0l-4.5-7.7-2.1-3.7h12.7l6.5 11.4h0l.1.1zm40.6 0l.2.4h0l6.3 10.9h-12.8l-13.2-22.8h12.9l6.5 11.4h0l.1.1zm40.4 0l.2.4h0l6.3 10.9h-12.8l-13.2-22.8h12.9l6.5 11.4h0l.1.1zm40.4 0l.2.4h0l6.3 10.9h-12.8l-13.2-22.8h12.9l6.5 11.4h0l.1.1zm40.4 0l.2.4h0l6.3 10.9h-12.8l-13.2-22.8H626l6.5 11.4h0l.1.1zm40.4 0l.2.4h0l6.3 10.9h-12.6l-13.2-22.8h12.7l6.5 11.4h0l.1.1zm40.4 0l.2.4h0l6.3 10.9h-12.6l-6.6-11.4h0l-4.5-7.7-2.1-3.7h12.7l6.5 11.4h0l.1.1zm40.5 0l.2.4h0l6.3 10.9h-12.8l-13.2-22.8h12.9l6.5 11.4h0l.1.1zm40.4 0l.2.4h0l6.3 10.9H788l-13.2-22.8h12.9l6.5 11.4h0l.1.1zm40.4 0l.2.4h0l6.3 10.9h-12.8l-13.2-22.8h12.9l6.5 11.4h0l.1.1zm40.4 0l.2.4h0l6.3 10.9h-12.8l-13.2-22.8h12.9l6.5 11.4h0l.1.1zm40.4 0l.2.4h0l6.3 10.9h-12.8L896 82.4h12.9l6.5 11.4h0l.1.1zm40.4 0l.2.4h0l6.3 10.9h-12.8l-13.2-22.8h12.9l6.5 11.4h0l.1.1zm40.5 0l.2.4h0l6.3 10.9H990l-13.2-22.8h13l6.5 11.4h0l.1.1zm40.4 0l.2.4h0l6.3 10.9h-12.9l-13.2-22.8h13l6.5 11.4h0l.1.1zm40.4 0l.2.4h0l6.3 10.9h-12.9l-13.2-22.8h13l6.5 11.4h0l.1.1zm40.4 0l.2.4h0l6.3 10.9h-12.9L1098 82.4h13l6.5 11.4h0l.1.1zm40.4 0l.2.4h0l6.3 10.9h-12.8l-13.2-22.8h12.9l6.5 11.4h0l.1.1zm40.4 0l.2.4h0l6.3 10.9h-12.8l-6.6-11.4h0l-4.5-7.7-2.1-3.7h12.9l6.5 11.4h0l.1.1zm40.4 0l.2.4h0l6.3 10.9h-12.8l-13.2-22.8h12.9l6.5 11.4h0l.1.1zm40.4 0l.2.4h0l6.3 10.9H1273l-13.2-22.8h12.9l6.5 11.4h0v.1zm40.4 0l.2.4h0l6.3 10.9h-12.8l-13.2-22.8h12.9l6.5 11.4h0l.1.1zm40.4 0l.2.4h0l6.3 10.9h-12.8l-13.2-22.8h12.9l6.5 11.4h0l.1.1zm40.4 0l.2.4h0l6.3 10.9h-12.6l-13.2-22.8h12.7l6.5 11.4h0l.1.1zm40.4 0l.2.4h0l6.3 10.9h-12.6l-6.6-11.4h0l-4.5-7.7-2.1-3.7h12.7l6.5 11.4h0l.1.1zm40.6 0l.2.4h0l6.3 10.9h-12.8l-13.2-22.8h12.9l6.5 11.4h0l.1.1zm40.4 0l.2.4h0l6.3 10.9h-12.8l-13.2-22.8h12.9l6.5 11.4h0l.1.1zm40.4 0l.2.4h0l6.3 10.9h-12.8l-13.2-22.8h12.9l6.5 11.4h0l.1.1zm40.4 0l.2.4h0l6.3 10.9h-12.8l-13.2-22.8h12.9l6.5 11.4h0l.1.1zm40.4 0l.2.4h0l6.3 10.9h-12.6l-13.2-22.8h12.7l6.5 11.4h0l.1.1zm40.4 0l.2.4h0l6.3 10.9h-12.6l-6.6-11.4h0l-4.5-7.7-2.1-3.7h12.7l6.5 11.4h0l.1.1zm40.5 0l.2.4h0l6.3 10.9h-12.8l-13.2-22.8h12.9l6.5 11.4h0l.1.1zm40.4 0l.2.4h0l6.3 10.9H1758l-13.2-22.8h12.9l6.5 11.4h0l.1.1zm40.4 0l.2.4h0l6.3 10.9h-12.8l-13.2-22.8h12.9l6.5 11.4h0l.1.1zm-13.7 23.5l-6.2 10.8-6.4-11.1h0l6.8-11.8h-.1l6.2-10.8 6.4 11-6.7 11.9h0zm-40.4 0l-6.2 10.8-6.4-11.1h0l6.8-11.8h-.1l6.2-10.8 6.4 11-6.7 11.9h0zm-40.4 0l-6.2 10.8-6.4-11.1h0l6.8-11.8h-.1l6.2-10.8 6.4 11-6.7 11.9h0zm-40.5 0l-6.2 10.7-6.3-11h0l6.8-11.8h-.1l6.2-10.7 6.4 10.9-6.8 11.9h0zm-40.4 0l-6.2 10.7-6.3-11-.1-.1 4.9-8.5 1.9-3.2h0l4-7 2.2-3.8 6.4 11-6.8 11.9h0zm-40.4 0l-6.2 10.8-6.4-11.1h0l6.8-11.8h-.1l6.2-10.8 6.4 11-6.7 11.9h0zm-40.4 0l-6.2 10.8-6.4-11.1h0l6.8-11.8h-.1l6.2-10.8 6.4 11-6.7 11.9h0zm-40.4 0l-6.2 10.8-6.4-11.1h0l6.8-11.8h-.1l6.2-10.8 6.4 11-6.7 11.9h0zm-40.4 0l-6.2 10.8-6.4-11.1h0l6.8-11.8h-.1l6.2-10.8 6.4 11-6.7 11.9h0zm-40.5 0l-6.2 10.7-6.3-11h0l6.8-11.8h-.1l6.2-10.7 6.4 10.9-6.8 11.9h0zm-40.4 0l-6.2 10.7-6.3-11-.1-.1 4.9-8.5 1.9-3.2h0l4-7 2.2-3.8 6.4 11-6.8 11.9h0zm-40.4 0l-6.2 10.8-6.4-11.1h0l6.8-11.8h-.1l6.2-10.8 6.4 11-6.7 11.9h0zm-40.4 0l-6.2 10.8-6.4-11.1h0l6.8-11.8h-.1l6.2-10.8 6.4 11-6.7 11.9h0zm-40.4 0l-6.2 10.8-6.4-11.1h0l6.8-11.8h-.1l6.2-10.8 6.4 11-6.7 11.9h0zm-40.4 0l-6.2 10.8-6.4-11.1h0l6.8-11.8h-.1l6.2-10.8 6.4 11-6.7 11.9h0zm-40.4 0l-6.2 10.8-6.4-11.1h0l6.8-11.8h-.1l6.2-10.8 6.4 11-6.7 11.9h0zm-40.4 0l-6.2 10.8-6.4-11.1-.1-.1 4.9-8.5 1.9-3.2h0l4-7 2.2-3.9 6.5 11.2-6.8 11.8h0zm-40.4 0l-6.3 10.9-6.4-11.2h0l6.8-11.8h-.1l6.3-10.9 6.5 11.2-6.8 11.8h0zm-40.4 0l-6.3 10.9-6.4-11.2h0l6.8-11.8h-.1l6.3-10.9 6.5 11.2-6.8 11.8h0zm-40.4 0l-6.3 10.9-6.4-11.2h0l6.8-11.8h-.1l6.3-10.9 6.5 11.2-6.8 11.8h0zm-40.4 0l-6.3 10.9-6.4-11.2h0l6.8-11.8h-.1l6.3-10.9 6.5 11.2-6.8 11.8h0zm-13.4-.5h-26.2l6.4-11.1h20.2.1 5.9L970 116v-.1l-.6 1zm-27.2.5l-6.2 10.8-6.4-11.1h0l6.8-11.8h-.1l6.2-10.8 6.4 11-6.7 11.9h0zm-40.4 0l-6.2 10.8-6.4-11.1h0l6.8-11.8h0l6.2-10.8 6.4 11-6.8 11.9h0zm-40.4 0l-6.2 10.8-6.4-11.1h0l6.8-11.8h-.1l6.2-10.8 6.4 11-6.7 11.9h0zm-40.4 0l-6.2 10.8-6.4-11.1h0l6.8-11.8h-.1l6.2-10.8 6.4 11-6.7 11.9h0zm-40.4 0l-6.2 10.8-6.4-11.1h0l6.8-11.8h-.1l6.2-10.8 6.4 11-6.7 11.9h0zm-40.4 0l-6.2 10.8-6.4-11.1h0l6.8-11.8h-.1l6.2-10.8 6.4 11-6.7 11.9h0zm-40.5 0l-6.2 10.7-6.3-11h0l6.8-11.8h0l6.2-10.7 6.4 10.9-6.9 11.9h0zm-40.4 0l-6.2 10.7-6.3-11-.1-.1 4.9-8.5 1.9-3.2h0l4-7 2.2-3.8 6.4 11-6.8 11.9h0zm-40.4 0l-6.2 10.8-6.4-11.1h0l6.8-11.8h-.1l6.2-10.8 6.4 11-6.7 11.9h0zm-40.4 0l-6.2 10.8-6.4-11.1h0l6.8-11.8h-.1l6.2-10.8 6.4 11-6.7 11.9h0zm-40.4 0l-6.2 10.8-6.4-11.1h0l6.8-11.8h-.1l6.2-10.8 6.4 11-6.7 11.9h0zm-40.4 0l-6.2 10.8-6.4-11.1h0l6.8-11.8h-.1l6.2-10.8 6.4 11-6.7 11.9h0zm-40.5 0l-6.2 10.7-6.3-11h0l6.8-11.8h-.1l6.2-10.7 6.4 10.9-6.8 11.9h0zm-40.4 0l-6.2 10.7-6.3-11-.1-.1 4.9-8.5 1.9-3.2h0l4-7 2.2-3.8 6.4 11-6.8 11.9h0zm-40.4 0l-6.2 10.8-6.4-11.1h0l6.8-11.8h-.1l6.2-10.8 6.4 11-6.7 11.9h0zm-40.4 0l-6.2 10.8-6.4-11.1h0l6.8-11.8h-.1l6.2-10.8 6.4 11-6.7 11.9h0zm-40.4 0l-6.2 10.8-6.4-11.1h0l6.8-11.8h-.1l6.2-10.8 6.4 11-6.7 11.9h0zm-40.4 0l-6.2 10.8-6.4-11.1h0l6.8-11.8h-.1l6.2-10.8 6.4 11-6.7 11.9h0zm-40.4 0l-6.2 10.8-6.4-11.1h0l6.8-11.8h0l6.2-10.8 6.4 11-6.8 11.9h0zm-40.4 0l-6.2 10.8-6.4-11.1-.1-.1 4.9-8.5 1.9-3.2h0l4-7 2.2-3.9 6.5 11.2-6.8 11.8h0zm-40.4 0l-6.3 10.9-6.4-11.2h0l6.8-11.8h-.1l6.3-10.9 6.5 11.2-6.8 11.8h0zm-6.9-11.7l-6.4 11.1H94.4l6.4-11.1h26.3zm-12.5-.6L121 94h12.7l-6.4 11.1h-12.7zm26.7.6h26.2l-6.4 11.1h-26.2l6.4-11.1zm13.7-.6l6.4-11.1h12.7l-6.4 11.1H155zm26.8.6h26.1l-6.4 11.1h-26.1l6.4-11.1zm13.8-.6L202 94h12.6l-6.4 11.1h-12.6zm26.6.6h26.1l-6.4 11.1h-26.1l6.4-11.1zm13.7-.6l6.4-11.1H255l-6.4 11.1h-12.7zm26.7.6h26.1l-6.4 11.1h-26.1l6.4-11.1zm13.7-.6l6.4-11.1h12.6l-6.4 11.1h-12.6zm26.7.6h26.1l-6.4 11.1h-26.1l6.4-11.1zm13.8-.6l6.4-11.1h12.6l-6.4 11.1h-12.6zm26.6.6h26.1l-6.4 11.1H337l6.4-11.1zm13.8-.6l6.4-11.1h12.6l-6.4 11.1h-12.6zm26.6.6h26.1l-6.4 11.1h-26.1l6.4-11.1zm13.8-.6L404 94h12.6l-6.4 11.1h-12.6zm26.7.6h26l-6.4 11.1h-26l6.4-11.1zm13.8-.6l6.4-11.1H457l-6.4 11.1h-12.5zm26.6.6h26.1l-1.4 2.5-5 8.6h-26.1l6.4-11.1zm13.8-.6l6.4-11.1h12.6l-2.3 4-4.1 7.1h-12.6zm26.6.6h26.1l-6.4 11.1h-26.1l6.4-11.1zm13.8-.6l6.4-11.1h12.6l-6.4 11.1h-12.6zm26.6.6h0 26.1l-6.4 11.1h-26.1l6.4-11.1zm13.8-.6l6.4-11.1h12.6l-6.4 11.1h-12.6zm26.6.6H612l-6.4 11.1h-26.1l6.4-11.1zm13.8-.6l6.4-11.1h12.6l-6.4 11.1h-12.6zm26.6.6h26.1l-6.4 11.1h-26.1l6.4-11.1zm13.8-.6l6.4-11.1h12.6l-6.4 11.1h-12.6zm26.8.6h26l-6.4 11.1h-26l6.4-11.1zm13.7-.6L687 94h12.5l-6.4 11.1h-12.5zm26.7.6h26.1l-1.4 2.5-5 8.6h-26.1l6.4-11.1zm13.7-.6l6.4-11.1H740l-2.3 4-4.1 7.1H721zm26.7.6h26.1l-6.4 11.1h-26.1l6.4-11.1zm13.7-.6l6.4-11.1h12.6l-6.4 11.1h-12.6zm26.6.6h0 26.1l-6.4 11.1h-26.1l6.4-11.1zm13.8-.6l6.4-11.1h12.6l-6.4 11.1h-12.6zm26.7.6h26.1l-6.4 11.1H822l6.5-11.1zm13.7-.6l6.4-11.1h12.6l-6.4 11.1h-12.6zm26.7.6H895l-6.4 11.1h-26.1l6.4-11.1zm13.7-.6L889 94h12.6l-6.4 11.1h-12.6zm26.7.6h26.1l-6.4 11.1h-26.1l6.4-11.1zm13.7-.6l6.4-11.1H942l-6.4 11.1H923zm40.4 0l6.4-11.1h0 .1 12.6l-6.4 11.1H970h-.1-6.5zm26.7.6h26.2l-6.4 11.1h-26.2l6.4-11.1zm13.7-.6l6.4-11.1h12.7l-6.4 11.1h-12.7zm26.7.6h26.2l-6.4 11.1H1024l6.5-11.1zm13.7-.6l6.4-11.1h12.7l-6.4 11.1h-12.7zm26.7.6h26.2l-6.4 11.1h-26.2l6.4-11.1zm13.7-.6L1091 94h12.7l-6.4 11.1h-12.7zm26.7.6h26.2l-6.4 11.1h-26.2l6.4-11.1zm13.7-.6l6.4-11.1h12.7l-6.4 11.1H1125zm26.8.6h26.1l-6.4 11.1h-26.1l6.4-11.1zm13.8-.6L1172 94h12.6l-6.4 11.1h-12.6zm26.6.6h26.1l-6.4 11.1h-26.1l6.4-11.1zm13.7-.6l6.4-11.1h12.6l-6.4 11.1h-12.6zm26.7.6h26.1l-6.4 11.1h-26.1l6.4-11.1zm13.7-.6l6.4-11.1h12.6l-6.4 11.1h-12.6zm26.7.6h26.1l-6.4 11.1h-26.1l6.4-11.1zm13.8-.6l6.4-11.1h12.6l-6.4 11.1h-12.6zm26.6.6h26.1l-6.4 11.1H1307l6.4-11.1zm13.8-.6l6.4-11.1h12.6l-6.4 11.1h-12.6zm26.6.6h26.1l-6.4 11.1h-26.1l6.4-11.1zm13.8-.6L1374 94h12.6l-6.4 11.1h-12.6zm26.7.6h26l-6.4 11.1h-26l6.4-11.1zm13.8-.6l6.4-11.1h12.5l-6.4 11.1h-12.5zm26.6.6h26.1l-1.4 2.5-5 8.6h-26.1l6.4-11.1zm13.8-.6l6.4-11.1h12.6l-2.3 4-4.1 7.1h-12.6zm26.6.6h26.1l-6.4 11.1h-26.1l6.4-11.1zm13.8-.6l6.4-11.1h12.6l-6.4 11.1h-12.6zm26.6.6h0 26.1l-6.4 11.1h-26.1l6.4-11.1zm13.8-.6l6.4-11.1h12.6l-6.4 11.1h-12.6zm26.6.6h26.1l-6.4 11.1h-26.1l6.4-11.1zm13.8-.6l6.4-11.1h12.6l-6.4 11.1h-12.6zm26.6.6h26.1l-6.4 11.1h-26.1l6.4-11.1zm13.8-.6l6.4-11.1h12.6l-6.4 11.1h-12.6zm26.8.6h26l-6.4 11.1h-26l6.4-11.1zm13.7-.6L1657 94h12.5l-6.4 11.1h-12.5zm26.7.6h26.1l-1.4 2.5-5 8.6h-26.1l6.4-11.1zm13.7-.6l6.4-11.1h12.6l-2.3 4-4.1 7.1H1691zm26.7.6h26.1l-6.4 11.1h-26.1l6.4-11.1zm13.7-.6l6.4-11.1h12.6l-6.4 11.1h-12.6zm26.6.6h0 26.1l-6.4 11.1h-26.1l6.4-11.1zm13.8-.6l6.4-11.1h12.6l-6.4 11.1h-12.6zm26.7.6h26.1l-6.4 11.1H1792l6.5-11.1zm13.7-.6l6.4-11.1h12.6l-6.4 11.1h-12.6zm6.4-11.6l-6.4-11.1h12.8l6.4 11.1h-12.8zm-.5.2l-6.4 11-6.3-11.1 6.3-11 6.4 11.1zm-27.1-.2h-12.8l-6.4-11.1h12.8l6.4 11.1zm-13.3.2l-6.4 11-6.3-11.1 6.3-11 6.4 11.1zm-27.1-.2h-12.8l-6.4-11.1h12.8l6.4 11.1zm-13.3.2l-6.4 11-6.3-11.1 6.3-11 6.4 11.1zm-27.2-.2h-12.6l-6.4-11.1h12.6l6.4 11.1zm-13.3.2l-6.3 10.9-6.3-11 6.3-10.9 6.3 11zm-27.1-.2H1657l-6.4-11.1h12.6l6.5 11.1zm-13.3.2l-6.3 10.9-6.3-11 6.3-10.9 6.3 11zm-27.1-.2h-12.8l-6.4-11.1h12.8l6.4 11.1zm-13.3.2l-6.4 11-6.3-11.1 6.3-11 6.4 11.1zm-27.1-.2h-12.8l-6.4-11.1h12.8l6.4 11.1zm-13.3.2l-6.4 11-6.3-11.1 6.3-11 6.4 11.1zm-27.1-.2h-12.8l-6.4-11.1h12.8l6.4 11.1zm-13.3.2l-6.4 11-6.3-11.1 6.3-11 6.4 11.1zm-27.1-.2h-12.8l-6.4-11.1h12.8l6.4 11.1zm-13.3.2l-6.4 11-6.3-11.1 6.3-11 6.4 11.1zm-27.3-.2h-12.6l-6.4-11.1h12.6l6.4 11.1zm-13.3.2l-6.3 10.9-6.3-11 6.3-10.9 6.3 11zm-27.1-.2h-12.6l-6.4-11.1h12.6l6.4 11.1zm-13.3.2l-6.3 10.9-6.3-11 6.3-10.9 6.3 11zm-27.1-.2H1374l-6.4-11.1h12.8l6.3 11.1zm-13.3.2l-6.4 11-6.3-11.1 6.3-11 6.4 11.1zm-27.1-.2h-12.8l-6.4-11.1h12.8l6.4 11.1zm-13.3.2l-6.4 11-6.3-11.1 6.3-11 6.4 11.1zm-27.1-.2h-12.8l-6.4-11.1h12.8l6.4 11.1zm-13.3.2l-6.4 11-6.3-11.1 6.3-11 6.4 11.1zm-27.1-.2h-12.8l-6.4-11.1h12.8l6.4 11.1zm-13.3.2l-6.4 11-6.3-11.1 6.3-11 6.4 11.1zm-27.1-.2h-12.8l-6.4-11.1h12.8l6.4 11.1zm-13.3.2l-6.4 11-6.3-11.1 6.3-11 6.4 11.1zm-27.1-.2H1172l-6.4-11.1h12.8l6.3 11.1zm-13.3.2l-6.4 11-6.3-11.1 6.3-11 6.4 11.1zm-27.1-.2h-12.9l-6.4-11.1h12.9l6.4 11.1zm-13.3.2l-6.4 11.1-6.4-11.2 6.4-11.1 6.4 11.2zm-27.1-.2H1091l-6.4-11.1h12.9l6.4 11.1zm-13.3.2l-6.4 11.1-6.4-11.2 6.4-11.1 6.4 11.2zm-27.1-.2h-12.9l-6.4-11.1h12.9l6.4 11.1zm-13.3.2l-6.4 11.1-6.4-11.2 6.4-11.1 6.4 11.2zm-27.1-.2h-12.9l-6.4-11.1h12.9l6.4 11.1zm-13.3.2l-6.4 11.1-6.4-11.1 6.4-11.1 6.4 11.1zm-27.1-.2H970h-.1 0l-6.4-11.1h6.5.1 6.3l6.3 11.1zm-13.4.2l-6.4 11-6.3-11.1 6.3-11 6.4 11.1zm-27.1-.2h-12.8L923 82.3h12.8l6.4 11.2zm-13.3.2l-6.4 11-6.3-11.1 6.3-11 6.4 11.1zm-27.1-.2H889l-6.4-11.1h12.8l6.4 11.1zm-13.3.2l-6.4 11-6.3-11.1 6.3-11 6.4 11.1zm-27.1-.2h-12.8l-6.4-11.1H855l6.4 11.1zm-13.3.2l-6.4 11-6.3-11.1 6.3-11 6.4 11.1zm-27.1-.2h-12.8l-6.4-11.1h12.8l6.4 11.1zm-13.3.2l-6.4 11-6.3-11 6.3-11 6.4 11zm-27.1-.2h-12.8l-6.4-11.1h12.8l6.4 11.1zm-13.3.2l-6.4 11-6.3-11.1 6.3-11 6.4 11.1zm-27.2-.2h-12.6L721 82.3h12.6l6.5 11.2zm-13.3.2l-6.3 10.9-6.3-11 6.3-10.9 6.3 11zm-27.1-.2H687l-6.4-11.1h12.6l6.5 11.1zm-13.3.2l-6.3 10.9-6.3-11 6.3-10.9 6.3 11zm-27.1-.2h-12.8l-6.4-11.1h12.8l6.4 11.1zm-13.3.2l-6.4 11-6.3-11.1 6.3-11 6.4 11.1zm-27.1-.2h-12.8l-6.4-11.1h12.8l6.4 11.1zm-13.3.2l-6.4 11-6.3-11.1 6.3-11 6.4 11.1zm-27.1-.2h-12.8l-6.4-11.1H572l6.5 11.1zm-13.3.2l-6.4 11-6.3-11.1 6.3-11 6.4 11.1zm-27.1-.2h-12.8l-6.4-11.1h12.8l6.4 11.1zm-13.3.2l-6.4 11-6.4-11 6.3-11 6.5 11zm-27.3-.2h-12.6l-6.4-11.1h12.6l6.4 11.1zm-13.3.2l-6.3 10.9-6.3-11 6.3-10.9 6.3 11zm-27.1-.2h-12.6l-6.4-11.1h12.6l6.4 11.1zm-13.3.2l-6.3 10.9-6.3-11 6.3-10.9 6.3 11zm-27.1-.2H404l-6.4-11.1h12.8l6.3 11.1zm-13.3.2l-6.4 11-6.3-11.1 6.3-11 6.4 11.1zm-27.1-.2h-12.8l-6.4-11.1h12.8l6.4 11.1zm-13.3.2l-6.4 11-6.3-11.1 6.3-11 6.4 11.1zm-27.1-.2h-12.8l-6.4-11.1h12.8l6.4 11.1zm-13.3.2l-6.4 11-6.3-11.1 6.3-11 6.4 11.1zm-27.1-.2h-12.8l-6.4-11.1h12.8l6.4 11.1zm-13.3.2l-6.4 11-6.3-11.1 6.3-11 6.4 11.1zm-27.1-.2h-12.8l-6.4-11.1h12.8l6.4 11.1zm-13.3.2l-6.4 11-6.3-11.1 6.3-11 6.4 11.1zm-27.1-.2H202l-6.4-11.1h12.7l6.4 11.1zm-13.3.2l-6.4 11-6.3-11.1 6.3-11 6.4 11.1zm-27.1-.2h-12.9L155 82.3h12.9l6.4 11.2zm-13.3.2l-6.4 11.1-6.4-11.2 6.4-11.1 6.4 11.2zm-27.1-.2H121l-6.4-11.1h12.9l6.4 11.1zm-13.3.2l-6.4 11.1-6.4-11.2 6.4-11.1 6.4 11.2zm-26.6 24l6.4 11.1L94 140l-6.4-11.2 6.4-11.1zm6.9 11.4h12.8l-6.4 11.1H94.4l6.5-11.1zm0-.5l-6.4-11.1h12.9l6.4 11.1h-12.9zm7-11.2h13l6.5 11.4h0l.1.1.2.4h0l6.3 10.9h-12.9l-13.2-22.8zm20.1 11.4l6.4-11.1 6.4 11.1-6.4 11.1-6.4-11.1zm13.3.3h12.8l-6.4 11.1h-12.8l6.4-11.1zm0-.5l-6.4-11.1h12.9l6.4 11.1h-12.9zm7.1-11.2h12.9l6.5 11.4h0l.1.1.2.4h0l6.3 10.9h-12.8l-13.2-22.8zm20.1 11.4l6.3-11 6.4 11-6.4 11-6.3-11zm13.3.3h12.7l-6.4 11.1h-12.7l6.4-11.1zm0-.5l-6.4-11.1h12.8l6.4 11.1h-12.8zm7-11.2h12.9l6.5 11.4h0l.1.1.2.4h0l6.3 10.9H202l-13.2-22.8zm20.1 11.4l6.3-11 6.4 11-6.4 11-6.3-11zm13.3.3h12.7l-6.4 11.1h-12.7l6.4-11.1zm0-.5l-6.4-11.1h12.8l6.4 11.1h-12.8zm7-11.2h12.9l6.5 11.4h0l.1.1.2.4h0l6.3 10.9h-12.8l-13.2-22.8zm20.1 11.4l6.3-11 6.4 11-6.4 11-6.3-11zm13.3.3h12.7l-6.4 11.1h-12.7l6.4-11.1zm0-.5l-6.4-11.1H269l6.4 11.1h-12.8zm7-11.2h12.9l6.5 11.4h0l.1.1.2.4h0l6.3 10.9h-12.8l-13.2-22.8zm20.1 11.4l6.3-11 6.4 11-6.4 11-6.3-11zm13.3.3h12.7l-6.4 11.1h-12.7l6.4-11.1zm0-.5l-6.4-11.1h12.8l6.4 11.1H303zm7-11.2h12.9l6.5 11.4h0l.1.1.2.4h0l6.3 10.9h-12.8L310 117.4zm20.1 11.4l6.3-11 6.4 11-6.4 11-6.3-11zm13.3.3h12.7l-6.4 11.1H337l6.4-11.1zm0-.5l-6.4-11.1h12.8l6.4 11.1h-12.8zm7-11.2h12.9l6.5 11.4h0l.1.1.2.4h0l6.3 10.9h-12.8l-13.2-22.8zm20.1 11.4l6.3-11 6.4 11-6.4 11-6.3-11zm13.3.3h12.7l-6.4 11.1h-12.7l6.4-11.1zm0-.5l-6.4-11.1h12.8l6.4 11.1h-12.8zm7.2-11.2h12.7l6.5 11.4h0l.1.1.2.4h0l6.3 10.9h-12.6L391 117.4zm20 11.4l6.3-10.9 6.3 10.9-6.3 10.9-6.3-10.9zm13.3.3h12.5l-6.4 11.1h-12.6l6.5-11.1zm0-.5l-6.4-11.1h12.6l6.4 11.1h-12.6zm7.1-11.2h12.7l6.5 11.4h0l.1.1.2.4h0l6.3 10.9h-12.6l-13.2-22.8zm20 11.4l6.3-10.9 6.3 10.9-6.3 10.9-6.3-10.9zm13.3.3h12.5l-6.4 11.1h-12.6l6.5-11.1zm0-.5l-6.4-11.1h12.6l6.4 11.1h-12.6zm7.1-11.2h12.9l6.5 11.4h0l.1.1.2.4h0l6.3 10.9H485l-13.2-22.8zm20 11.4l6.3-11 6.4 11-6.4 11-6.3-11zm13.3.3h12.7l-6.4 11.1h-12.7l6.4-11.1zm0-.5l-6.4-11.1h12.8l6.4 11.1h-12.8zm7.1-11.2H525l6.5 11.4h0l.1.1.2.4h0l6.3 10.9h-12.8l-13.1-22.8zm20 11.4l6.3-11 6.4 11-6.4 11-6.3-11zm13.3.3h12.7l-6.4 11.1h-12.7l6.4-11.1zm0-.5l-6.4-11.1h12.8l6.4 11.1h-12.8zm7.1-11.2h12.9l6.5 11.4h0l.1.1.2.4h0l6.3 10.9h-12.8l-13.2-22.8zm20 11.4l6.3-11 6.4 11-6.4 11-6.3-11zm13.3.3h12.7l-6.4 11.1h-12.7l6.4-11.1zm0-.5l-6.4-11.1h12.8l6.4 11.1h-12.8zm7.1-11.2h12.9l6.5 11.4h0l.1.1.2.4h0l6.3 10.9h-12.8L593 117.4zm20 11.4l6.3-11 6.4 11-6.4 11-6.3-11zm13.3.3H639l-6.4 11.1h-12.7l6.4-11.1zm0-.5l-6.4-11.1h12.8l6.4 11.1h-12.8zm7.2-11.2h12.7l6.5 11.4h0l.1.1.2.4h0l6.3 10.9h-12.6l-13.2-22.8zm20.1 11.4l6.3-10.9 6.3 10.9-6.3 10.9-6.3-10.9zm13.3.3h12.5l-6.4 11.1h-12.6l6.5-11.1zm0-.5l-6.4-11.1H673l6.4 11.1h-12.5zm7-11.2h12.7l6.5 11.4h0l.1.1.2.4h0l6.3 10.9h-12.6l-13.2-22.8zm20.1 11.4l6.3-10.9 6.3 10.9-6.3 10.9-6.3-10.9zm13.2.3h12.5l-6.4 11.1h-12.6l6.5-11.1zm0-.5l-6.4-11.1h12.6l6.4 11.1h-12.6zm7.1-11.2h12.9l6.5 11.4h0l.1.1.2.4h0l6.3 10.9h-12.8l-13.2-22.8zm20.1 11.4l6.3-11 6.4 11-6.4 11-6.3-11zm13.3.3h12.7l-6.4 11.1h-12.7l6.4-11.1zm0-.5l-6.4-11.1H754l6.4 11.1h-12.7zm7-11.2h12.9l6.5 11.4h0l.1.1.2.4h0l6.3 10.9h-12.8l-13.2-22.8zm20.1 11.4l6.3-11 6.4 11-6.4 11-6.3-11zm13.3.3h12.7l-6.4 11.1h-12.7l6.4-11.1zm0-.5l-6.4-11.1h12.8l6.4 11.1h-12.8zm7-11.2H808l6.5 11.4h0l.1.1.2.4h0l6.3 10.9h-12.8l-13.2-22.8zm20.1 11.4l6.3-11 6.4 11-6.4 11-6.3-11zm13.3.3h12.7l-6.4 11.1H822l6.5-11.1zm0-.5l-6.4-11.1h12.8l6.4 11.1h-12.8zm7-11.2h12.9l6.5 11.4h0l.1.1.2.4h0l6.3 10.9h-12.8l-13.2-22.8zm20.1 11.4l6.3-11 6.4 11-6.4 11-6.3-11zm13.3.3h12.7l-6.4 11.1h-12.7l6.4-11.1zm0-.5l-6.4-11.1h12.8l6.4 11.1h-12.8zm7-11.2h12.9l6.5 11.4h0l.1.1.2.4h0l6.3 10.9h-12.8l-13.2-22.8zm20.1 11.4l6.3-11 6.4 11-6.4 11-6.3-11zm13.3.3H922l-6.4 11.1h-12.7l6.4-11.1zm0-.5l-6.4-11.1h12.8l6.4 11.1h-12.8zm7-11.2h12.9l6.5 11.4h0l.1.1.2.4h0l6.3 10.9h-12.8l-13.2-22.8zm20.1 11.4l6.3-11 6.4 11-6.4 11-6.3-11zm13.3.3h12.7l-6.4 11.1h-12.7l6.4-11.1zm0-.5l-6.4-11.1H956l6.4 11.1h-12.7zm7-11.2h13l.3.6h0l6.2 10.9h0l.1.1.2.4h0l6.3 10.9H970h-.1 0l-13.2-22.9zm20.1 11.4l6.4-11.1 6.4 11.1-6.4 11.1-6.4-11.1zm13.3.3h12.8l-6.4 11.1h-12.8l6.4-11.1zm0-.5l-6.4-11.1h12.9l6.4 11.1h-12.9zm7-11.2h13l6.5 11.4h0l.1.1.2.4h0l6.3 10.9h-12.9l-13.2-22.8zm20.1 11.4l6.4-11.1 6.4 11.1-6.4 11.1-6.4-11.1zm13.3.3h12.8l-6.4 11.1H1024l6.5-11.1zm0-.5l-6.4-11.1h12.9l6.4 11.1h-12.9zm7-11.2h13l6.5 11.4h0l.1.1.2.4h0l6.3 10.9h-12.9l-13.2-22.8zm20.1 11.4l6.4-11.1 6.4 11.1-6.4 11.2-6.4-11.2zm13.3.3h12.8l-6.4 11.1h-12.8l6.4-11.1zm0-.5l-6.4-11.1h12.9l6.4 11.1h-12.9zm7-11.2h13l6.5 11.4h0l.1.1.2.4h0l6.3 10.9h-12.9l-13.2-22.8zm20.1 11.4l6.4-11.1 6.4 11.1-6.4 11.1-6.4-11.1zm13.3.3h12.8l-6.4 11.1h-12.8l6.4-11.1zm0-.5l-6.4-11.1h12.9l6.4 11.1h-12.9zm7.1-11.2h12.9l6.5 11.4h0l.1.1.2.4h0l6.3 10.9h-12.8l-13.2-22.8zm20.1 11.4l6.3-11 6.4 11-6.4 11-6.3-11zm13.3.3h12.7l-6.4 11.1h-12.7l6.4-11.1zm0-.5l-6.4-11.1h12.8l6.4 11.1h-12.8zm7-11.2h12.9l6.5 11.4h0l.1.1.2.4h0l6.3 10.9H1172l-13.2-22.8zm20.1 11.4l6.3-11 6.4 11-6.4 11-6.3-11zm13.3.3h12.7l-6.4 11.1h-12.7l6.4-11.1zm0-.5l-6.4-11.1h12.8l6.4 11.1h-12.8zm7-11.2h12.9l6.5 11.4h0l.1.1.2.4h0l6.3 10.9h-12.8l-13.2-22.8zm20.1 11.4l6.3-11 6.4 11-6.4 11-6.3-11zm13.3.3h12.7l-6.4 11.1h-12.7l6.4-11.1zm0-.5l-6.4-11.1h12.8l6.4 11.1h-12.8zm7-11.2h12.9l6.5 11.4h0l.1.1.2.4h0l6.3 10.9h-12.8l-13.2-22.8zm20.1 11.4l6.3-11 6.4 11-6.4 11-6.3-11zm13.3.3h12.7l-6.4 11.1h-12.7l6.4-11.1zm0-.5l-6.4-11.1h12.8l6.4 11.1H1273zm7-11.2h12.9l6.5 11.4h0l.1.1.2.4h0l6.3 10.9h-12.8l-13.2-22.8zm20.1 11.4l6.3-11 6.4 11-6.4 11-6.3-11zm13.3.3h12.7l-6.4 11.1H1307l6.4-11.1zm0-.5l-6.4-11.1h12.8l6.4 11.1h-12.8zm7-11.2h12.9l6.5 11.4h0l.1.1.2.4h0l6.3 10.9h-12.8l-13.2-22.8zm20.1 11.4l6.3-11 6.4 11-6.4 11-6.3-11zm13.3.3h12.7l-6.4 11.1h-12.7l6.4-11.1zm0-.5l-6.4-11.1h12.8l6.4 11.1h-12.8zm7.2-11.2h12.7l6.5 11.4h0l.1.1.2.4h0l6.3 10.9h-12.6l-13.2-22.8zm20 11.4l6.3-10.9 6.3 10.9-6.3 10.9-6.3-10.9zm13.3.3h12.5l-6.4 11.1h-12.6l6.5-11.1zm0-.5l-6.4-11.1h12.6l6.4 11.1h-12.6zm7.1-11.2h12.7l6.5 11.4h0l.1.1.2.4h0l6.3 10.9h-12.6l-13.2-22.8zm20 11.4l6.3-10.9 6.3 10.9-6.3 10.9-6.3-10.9zm13.3.3h12.5l-6.4 11.1h-12.6l6.5-11.1zm0-.5l-6.4-11.1h12.6l6.4 11.1h-12.6zm7.1-11.2h12.9l6.5 11.4h0l.1.1.2.4h0l6.3 10.9H1455l-13.2-22.8zm20 11.4l6.3-11 6.4 11-6.4 11-6.3-11zm13.3.3h12.7l-6.4 11.1h-12.7l6.4-11.1zm0-.5l-6.4-11.1h12.8l6.4 11.1h-12.8zm7.1-11.2h12.9l6.5 11.4h0l.1.1.2.4h0l6.3 10.9h-12.8l-13.2-22.8zm20 11.4l6.3-11 6.4 11-6.4 11-6.3-11zm13.3.3h12.7l-6.4 11.1h-12.7l6.4-11.1zm0-.5l-6.4-11.1h12.8l6.4 11.1h-12.8zm7.1-11.2h12.9l6.5 11.4h0l.1.1.2.4h0l6.3 10.9h-12.8l-13.2-22.8zm20 11.4l6.3-11 6.4 11-6.4 11-6.3-11zm13.3.3h12.7l-6.4 11.1h-12.7l6.4-11.1zm0-.5l-6.4-11.1h12.8l6.4 11.1h-12.8zm7.1-11.2h12.9l6.5 11.4h0l.1.1.2.4h0l6.3 10.9h-12.8l-13.2-22.8zm20 11.4l6.3-11 6.4 11-6.4 11-6.3-11zm13.3.3h12.7l-6.4 11.1h-12.7l6.4-11.1zm0-.5l-6.4-11.1h12.8l6.4 11.1h-12.8zm7.2-11.2h12.7l6.5 11.4h0l.1.1.2.4h0l6.3 10.9h-12.6l-13.2-22.8zm20.1 11.4l6.3-10.9 6.3 10.9-6.3 10.9-6.3-10.9zm13.3.3h12.5l-6.4 11.1h-12.6l6.5-11.1zm0-.5l-6.4-11.1h12.6l6.4 11.1h-12.6zm7-11.2h12.7l6.5 11.4h0l.1.1.2.4h0l6.3 10.9h-12.6l-13.2-22.8zm20.1 11.4l6.3-10.9 6.3 10.9-6.3 10.9-6.3-10.9zm13.2.3h12.5l-6.4 11.1h-12.6l6.5-11.1zm0-.5l-6.4-11.1h12.6l6.4 11.1h-12.6zm7.1-11.2h12.9l6.5 11.4h0l.1.1.2.4h0l6.3 10.9h-12.8l-13.2-22.8zm20.1 11.4l6.3-11 6.4 11-6.4 11-6.3-11zm13.3.3h12.7l-6.4 11.1h-12.7l6.4-11.1zm0-.5l-6.4-11.1h12.8l6.4 11.1h-12.8zm7-11.2h12.9l6.5 11.4h0l.1.1.2.4h0l6.3 10.9h-12.8l-13.2-22.8zm20.1 11.4l6.3-11 6.4 11-6.4 11-6.3-11zm13.3.3h12.7l-6.4 11.1h-12.7l6.4-11.1zm0-.5l-6.4-11.1h12.8l6.4 11.1h-12.8zm7-11.2h12.9l6.5 11.4h0l.1.1.2.4h0l6.3 10.9h-12.8l-13.2-22.8zm20.1 11.4l6.3-11 6.4 11-6.4 11-6.3-11zm13.3.3h12.7l-6.4 11.1H1792l6.5-11.1zm0-.5l-6.4-11.1h12.8l6.4 11.1h-12.8zm7-11.2h12.9l6.5 11.4h0l.1.1.2.4h0l6.3 10.9h-12.8l-13.2-22.8zm20.1 11.4l6.3-11 6.4 11-6.4 11-6.3-11zm13.3.3h12.7l-6.4 11.1h-12.7l6.4-11.1zm0-.5l-6.4-11.1h12.8l6.4 11.1h-12.8zm-7.5-11.2h0l-6.2 10.8-6.4-11.1h0l6.8-11.8h-.1l6.2-10.8 6.4 11-6.7 11.9zm-5.7-35.1h12.9l6.5 11.4h0l.1.1.2.4h0l6.3 10.9h-12.8l-13.2-22.8zm20.1 11.4l6.3-11 6.4 11-6.4 11-6.3-11zm5.8-11.4l-6.2 10.8L1839 82h0l6.8-11.8h-.1 0l6.3-10.9 6.5 11.1-6.9 11.9h0zm-6.4-12.5h-12.7l6.4-11.1h12.7l-6.4 11.1zm-.5.8l-6.4 11.1h-26.1l6.4-11.1h26.1zm-33.5 11.7h0L1805 93l-6.4-11.1h0l6.8-11.8h-.1 0l6.3-10.9 6.5 11.1-6.9 12zm-6.4-12.5H1792l6.4-11.1h12.7l-6.3 11.1zm-.5.8l-6.4 11.1h-26.1l6.4-11.1h26.1zm-33.5 11.7h0l-6.2 10.8-6.4-11.1h0l6.8-11.8h-.1 0l6.3-10.9 6.5 11.1-6.9 11.9zm-6.4-12.5h-12.7l6.4-11.1h12.7l-6.4 11.1zm-.5.8l-6.4 11.1h-26.1l6.4-11.1h26.1zm-33.5 11.7h0l-6.2 10.8-6.4-11.1h0l6.8-11.8h-.1 0l6.3-10.9 6.5 11.1-6.9 11.9zm-6.4-12.5h-12.7l6.4-11.1h12.7l-6.4 11.1zm-.5.8l-1.4 2.5-5 8.6H1691l6.4-11.1h26.1zm-33.6 11.7h0l-6.1 10.7-6.3-11h0l6.8-11.8h-.1 0l6.2-10.8 6.4 11-6.9 11.9zm-6.5-12.5h-12.6l6.4-11.1h12.6l-6.4 11.1zm-.4.8l-6.4 11.1h-26l6.4-11.1h26zm-33.5 11.7h0l-6.1 10.7-6.3-11-.1-.1 5.1-9 1.6-2.8h0l6.2-10.8 6.4 11-6.8 12zm-6.5-12.5h-12.6l6.4-11.1h12.6l-6.4 11.1zm-.4.8l-6.4 11.1h-26.1l6.4-11.1h26.1zm-33.5 11.7h0l-6.2 10.8-6.4-11.1h0l6.8-11.8h-.1 0l6.3-10.9 6.5 11.1-6.9 11.9zm-6.5-12.5h-12.7l6.4-11.1h12.7l-6.4 11.1zm-.4.8l-6.4 11.1h-26.1l6.4-11.1h26.1zm-33.5 11.7h0l-6.2 10.8-6.4-11.1h0l6.8-11.8h-.1 0l6.3-10.9 6.5 11.1-6.9 11.9zm-6.5-12.5h-12.7l6.4-11.1h12.7l-6.4 11.1zm-.4.8l-6.4 11.1h-26.1l6.4-11.1h26.1zm-33.5 11.7h0l-6.2 10.8-6.4-11.1h0l6.8-11.8h-.1 0l6.3-10.9 6.5 11.1-6.9 11.9zm-6.5-12.5h-12.7l6.4-11.1h12.7l-6.4 11.1zm-.4.8l-6.4 11.1h-26.1l6.4-11.1h26.1zm-33.5 11.7h0l-6.2 10.8-6.4-11.1h0l6.8-11.8h-.1 0l6.3-10.9 6.5 11.1-6.9 11.9zm-6.5-12.5h-12.7l6.4-11.1h12.7l-6.4 11.1zm-.4.8l-1.4 2.5-5 8.6h-26.1l6.4-11.1h26.1zm-33.7 11.7h0l-6.1 10.7-6.3-11h0l6.8-11.8h-.1 0l6.2-10.8 6.4 11-6.9 11.9zm-6.4-12.5h-12.6l6.4-11.1h12.6l-6.4 11.1zm-.4.8l-6.4 11.1h-26l6.4-11.1h26zm-33.6 11.7h0l-6.1 10.7-6.3-11-.1-.1 5.2-9 1.6-2.8h0l6.2-10.8 6.4 11-6.9 12zm-6.4-12.5h-12.6l6.4-11.1h12.6l-6.4 11.1zm-.4.8l-6.4 11.1h-26.1l6.4-11.1h26.1zm-33.6 11.7h0l-6.2 10.8-6.4-11.1h0l6.8-11.8h-.1 0l6.3-10.9 6.5 11.1-6.9 11.9zm-6.4-12.5h-12.7l6.4-11.1h12.7l-6.4 11.1zm-.4.8l-6.4 11.1h-26.1l6.4-11.1h26.1zm-33.6 11.7h0l-6.2 10.8-6.4-11.1h0l6.8-11.8h-.1 0l6.3-10.9 6.5 11.1-6.9 11.9zm-6.4-12.5H1307l6.4-11.1h12.7l-6.4 11.1zm-.4.8l-6.4 11.1h-26.1l6.4-11.1h26.1zm-33.6 11.7h0l-6.2 10.8-6.4-11.1h0l6.8-11.8h-.1 0l6.3-10.9 6.5 11.1-6.9 11.9zm-6.4-12.5h-12.7l6.4-11.1h12.7l-6.4 11.1zm-.4.8l-6.4 11.1h-26.1l6.4-11.1h26.1zm-33.6 11.7h0l-6.2 10.8-6.4-11.1h0l6.8-11.8h-.1 0l6.3-10.9 6.5 11.1-6.9 11.9zm-6.4-12.5h-12.7l6.4-11.1h12.7l-6.4 11.1zm-.4.8l-6.4 11.1H1206l6.4-11.1h26.1zm-33.6 11.7h0l-6.2 10.8-6.4-11.1h0l6.8-11.8h-.1 0l6.3-10.9 6.5 11.1-6.9 11.9zm-6.4-12.5h-12.7l6.4-11.1h12.7l-6.4 11.1zm-.4.8l-6.4 11.1h-26.1l6.4-11.1h26.1zm-33.6 11.7h0l-6.2 10.8-6.4-11.1-.1-.1 5.1-9 1.6-2.8h0l6.3-10.9 6.5 11.1-6.8 12zm-6.4-12.5h-12.7l6.4-11.1h12.7l-6.4 11.1zm-.4.8l-6.4 11.1H1125l6.4-11.1h26.3zm-33.6 11.7h0l-6.3 10.9-6.4-11.2h0l6.8-11.8h-.1l6.3-11 6.5 11.2-6.8 11.9zm-6.4-12.5h-12.9l6.4-11.1h12.8l-6.3 11.1zm-.4.8l-6.4 11.1h-26.2l6.4-11.1h26.2zm-33.6 11.7h0l-6.3 10.9L1071 82h0l6.8-11.8h-.1l6.3-11 6.5 11.2-6.8 11.9zm-6.4-12.5h-12.9l6.4-11.1h12.8l-6.3 11.1zm-.4.8l-6.4 11.1h-26.2l6.4-11.1h26.2zm-33.6 11.7h0l-6.3 10.9-6.4-11.2h0l6.8-11.8h-.1l6.3-11 6.5 11.2-6.8 11.9zm-6.4-12.5H1024l6.4-11.1h12.8l-6.3 11.1zm-.4.8l-6.4 11.1h-26.2l6.4-11.1h26.2zm-33.6 11.7h0l-6.3 10.9-6.4-11.2h0l6.8-11.8h-.1l6.3-11 6.5 11.2-6.8 11.9zm-6.4-12.5h-12.9l6.4-11.1h12.8l-6.3 11.1zm-.4.8l-6.4 11.1H970h-.1-6.5l6.4-11.1h0 .1 26.2zm-33.7 11.7h0L956.2 93l-6.4-11.1h0l6.8-11.8h-.1 0l6.3-10.9 6.5 11.1-6.9 12zM956 69.8h-12.7l6.4-11.1h12.7L956 69.8zm-.5.8l-6.4 11.1H923l6.4-11.1h26.1zM922 82.3h0L915.8 93l-6.4-11.1h0l6.8-11.8h-.1 0l6.3-10.9 6.5 11.1-6.9 12zm-6.4-12.5h-12.7l6.4-11.1H922l-6.4 11.1zm-.5.8l-6.4 11.1h-26.1l6.4-11.1h26.1zm-33.5 11.7h0L875.4 93 869 81.9h0l6.8-11.8h-.1 0l6.3-10.9 6.5 11.1-6.9 12zm-6.4-12.5h-12.7l6.4-11.1h12.7l-6.4 11.1zm-.5.8l-6.4 11.1h-26.1l6.4-11.1h26.1zm-33.5 11.7h0L835 93l-6.4-11.1h0l6.8-11.8h-.1 0l6.3-10.9 6.5 11.1-6.9 12zm-6.4-12.5H822l6.4-11.1h12.7l-6.3 11.1zm-.5.8l-6.4 11.1h-26.1l6.4-11.1h26.1zm-33.5 11.7h0L794.6 93l-6.4-11.1h0l6.8-11.8h-.1 0l6.3-10.9 6.5 11.1-6.9 12zm-6.4-12.5h-12.7l6.4-11.1h12.7l-6.4 11.1zm-.5.8l-6.4 11.1h-26.1l6.4-11.1h26.1zm-33.5 11.7h0L754.2 93l-6.4-11.1h0l6.8-11.8h-.1 0l6.3-10.9 6.5 11.1-6.9 12zM754 69.8h-12.7l6.4-11.1h12.7L754 69.8zm-.5.8l-1.4 2.5-5 8.6H721l6.4-11.1h26.1zm-33.6 11.7h0L713.8 93l-6.3-11h0l6.8-11.8h-.1 0l6.2-10.8 6.4 11-6.9 11.9zm-6.5-12.5h-12.6l6.4-11.1h12.6l-6.4 11.1zm-.4.8l-6.4 11.1h-26l6.4-11.1h26zm-33.5 11.7h0L673.4 93l-6.3-11-.1-.1 5.1-9 1.6-2.8h0l6.2-10.8 6.4 11-6.8 12zM673 69.8h-12.6l6.4-11.1h12.6L673 69.8zm-.4.8l-6.4 11.1h-26.1l6.4-11.1h26.1zm-33.5 11.7h0L632.9 93l-6.4-11.1h0l6.8-11.8h-.1 0l6.3-10.9 6.5 11.1-6.9 12zm-6.5-12.5h-12.7l6.4-11.1H639l-6.4 11.1zm-.4.8l-6.4 11.1h-26.1l6.4-11.1h26.1zm-33.5 11.7h0L592.5 93l-6.4-11.1h0l6.8-11.8h-.1 0l6.3-10.9 6.5 11.1-6.9 12zm-6.5-12.5h-12.7l6.4-11.1h12.7l-6.4 11.1zm-.4.8l-6.4 11.1h-26.1l6.4-11.1h26.1zm-33.5 11.7h0L552.1 93l-6.4-11.1h0l6.8-11.8h-.1 0l6.3-10.9 6.5 11.1-6.9 12zm-6.5-12.5h-12.7l6.4-11.1h12.7l-6.4 11.1zm-.4.8L545 81.7h-26.1l6.4-11.1h26.1zm-33.5 11.7h0L511.7 93l-6.4-11.1h0l6.8-11.8h-.1 0l6.3-10.9 6.5 11.1-6.9 12zm-6.5-12.5h-12.7l6.4-11.1h12.7l-6.4 11.1zm-.4.8l-1.4 2.5-5 8.6h-26.1l6.4-11.1H511zm-33.7 11.7h0L471.2 93l-6.3-11h0l6.8-11.8h-.1 0l6.2-10.8 6.4 11-6.9 11.9zm-6.4-12.5h-12.6l6.4-11.1h12.6l-6.4 11.1zm-.4.8l-6.4 11.1h-26l6.4-11.1h26zm-33.6 11.7h0L430.8 93l-6.3-11-.1-.1 5.2-9 1.6-2.8h0l6.2-10.8 6.4 11-6.9 12zm-6.4-12.5h-12.6l6.4-11.1h12.6l-6.4 11.1zm-.4.8l-6.4 11.1h-26.1l6.4-11.1h26.1zm-33.6 11.7h0L390.3 93 384 81.9h0l6.8-11.8h-.1 0l6.3-10.9 6.5 11.1-7 12zm-6.4-12.5h-12.7l6.4-11.1h12.7l-6.4 11.1zm-.4.8l-6.4 11.1h-26.1l6.4-11.1h26.1zm-33.6 11.7h0L349.9 93l-6.4-11.1h0l6.8-11.8h-.1 0l6.3-10.9 6.5 11.1-6.9 12zm-6.4-12.5H337l6.4-11.1h12.7l-6.4 11.1zm-.4.8l-6.4 11.1h-26.1l6.4-11.1h26.1zm-33.6 11.7h0L309.5 93l-6.4-11.1h0l6.8-11.8h-.1 0l6.3-10.9 6.5 11.1-6.9 12zm-6.4-12.5h-12.7l6.4-11.1h12.7l-6.4 11.1zm-.4.8l-6.4 11.1h-26.1l6.4-11.1h26.1zm-33.6 11.7h0L269.1 93l-6.4-11.1h0l6.8-11.8h-.1 0l6.3-10.9 6.5 11.1-6.9 12zm-6.4-12.5h-12.7l6.4-11.1h12.7l-6.4 11.1zm-.4.8l-6.4 11.1H236l6.4-11.1h26.1zm-33.6 11.7h0L228.7 93l-6.4-11.1h0l6.8-11.8h-.1 0l6.3-10.9 6.5 11.1-6.9 12zm-6.4-12.5h-12.7l6.4-11.1h12.7l-6.4 11.1zm-.4.8l-6.4 11.1h-26.1l6.4-11.1h26.1zm-33.6 11.7h0L188.3 93 182 81.9l-.1-.1 5.1-9 1.6-2.8h0l6.3-10.9 6.5 11.1-6.9 12.1zm-6.4-12.5h-12.7l6.4-11.1h12.7l-6.4 11.1zm-.4.8l-6.4 11.1H155l6.4-11.1h26.3zm-33.6 11.7h0l-6.3 10.9-6.4-11.2h0l6.8-11.8h-.1l6.3-11 6.5 11.2-6.8 11.9zm-6.4-12.5h-12.9l6.4-11.1H154l-6.3 11.1zm-.4.8l-6.4 11.1h-26.2l6.4-11.1h26.2zm-33.6 11.7h0l-6.3 10.9L101 82h0l6.8-11.8h-.1l6.3-11 6.5 11.2-6.8 11.9zm-6.4-12.5H94.4l6.4-11.1h12.8l-6.3 11.1zm-.4.8l-6.4 11.1H74.2l6.4-11.1h26.3zM87.1 82.3l6.4 11.1H80.7l-6.4-11.1h12.8zm-6.9 11.4l-6.4 11.1-6.4-11.2 6.4-11.1 6.4 11.2zm6.5 12l-6.4 11.1H54l6.4-11.1h26.3zm-19.8 11.7l6.4 11.1H60.5L54 117.4h12.9zm.6 0h13l6.5 11.4h0v.2l.2.4h0l6.3 10.9H80.7l-13.2-22.9zm39.4 23.5l-6.4 11.1H74.2l6.4-11.1h26.3zm14.2 0h26.2l-6.4 11.1h-26.2l6.4-11.1zm40.4 0h26.2l-6.4 11.1H155l6.5-11.1zm40.5 0h26.1l-6.4 11.1h-26.1l6.4-11.1zm40.4 0h26.1l-6.4 11.1H236l6.4-11.1zm40.4 0h26.1l-6.4 11.1h-26.1l6.4-11.1zm40.4 0h26.1l-6.4 11.1h-26.1l6.4-11.1zm40.4 0h26.1l-6.4 11.1h-26.1l6.4-11.1zm40.4 0h26.1l-6.4 11.1h-26.1l6.4-11.1zm40.5 0h26l-6.4 11.1h-26l6.4-11.1zm40.4 0H511l-1.4 2.5-5 8.6h-26.1l6.4-11.1zm40.4 0h26.1L545 152h-26.1l6.4-11.1zm40.4 0h26.1l-6.4 11.1h-26.1l6.4-11.1zm40.4 0h26.1l-6.4 11.1h-26.1l6.4-11.1zm40.4 0h26.1l-6.4 11.1h-26.1l6.4-11.1zm40.5 0h26l-6.4 11.1h-26l6.4-11.1zm40.4 0h26.1l-1.4 2.5-5 8.6H721l6.4-11.1zm40.4 0h26.1l-6.4 11.1h-26.1l6.4-11.1zm40.4 0h26.1l-6.4 11.1h-26.1l6.4-11.1zm40.4 0h26.1l-6.4 11.1h-26.1l6.4-11.1zm40.4 0h26.1l-6.4 11.1h-26.1l6.4-11.1zm40.4 0h26.1l-6.4 11.1H923l6.4-11.1zm40.4 0h0 .2 26.1l-6.4 11.1H970h-.1-6.5l6.4-11.1zm40.5 0h26.2l-6.4 11.1h-26.2l6.4-11.1zm40.4 0h26.2l-6.4 11.1h-26.2l6.4-11.1zm40.4 0h26.2l-6.4 11.1h-26.2l6.4-11.1zm40.4 0h26.2l-6.4 11.1H1125l6.5-11.1zm40.5 0h26.1l-6.4 11.1h-26.1l6.4-11.1zm40.4 0h26.1l-6.4 11.1H1206l6.4-11.1zm40.4 0h26.1l-6.4 11.1h-26.1l6.4-11.1zm40.4 0h26.1l-6.4 11.1h-26.1l6.4-11.1zm40.4 0h26.1l-6.4 11.1h-26.1l6.4-11.1zm40.4 0h26.1l-6.4 11.1h-26.1l6.4-11.1zm40.5 0h26l-6.4 11.1h-26l6.4-11.1zm40.4 0h26.1l-1.4 2.5-5 8.6h-26.1l6.4-11.1zm40.4 0h26.1L1515 152h-26.1l6.4-11.1zm40.4 0h26.1l-6.4 11.1h-26.1l6.4-11.1zm40.4 0h26.1l-6.4 11.1h-26.1l6.4-11.1zm40.4 0h26.1l-6.4 11.1h-26.1l6.4-11.1zm40.5 0h26l-6.4 11.1h-26l6.4-11.1zm40.4 0h26.1l-1.4 2.5-5 8.6H1691l6.4-11.1zm40.4 0h26.1l-6.4 11.1h-26.1l6.4-11.1zm40.4 0h26.1l-6.4 11.1h-26.1l6.4-11.1zm40.4 0h26.1l-6.4 11.1h-26.1l6.4-11.1zm40.4 0h26.1l-6.4 11.1h-26.1l6.4-11.1zm13.8-.7l6.4-11.1h12.7l-6.4 11.1h-12.7zm-.5-.3l-6.3-11.1 6.3-11 6.4 11-6.4 11.1zm-13.7-23h-26.1l6.4-11.1h26.1l-6.4 11.1zm-6-11.8L1859 94h12.6l-6.4 11.1h-12.6zm6.4-11.6l-6.4-11.1h12.8l6.4 11.1H1859zm-6.4-11.8l6.4-11.1h26.1l-6.4 11.1h-26.1zm20.2-11.9l6.4-11.1h12.7l-6.4 11.1h-12.7zm-.5-.3l-6.3-11.1 6.3-11 6.4 11-6.4 11.1zm-20.7-11.3h-12.8l-6.4-11.1h12.8l6.4 11.1zm-13.3.2l-6.4 11-6.3-11.1 6.3-11 6.4 11.1zm-27.1-.2h-12.8L1792 47h12.8l6.4 11.2zm-13.3.2l-6.4 11-6.3-11.1 6.3-11 6.4 11.1zm-27.1-.2H1758l-6.4-11.1h12.8l6.4 11.1zm-13.3.2l-6.4 11-6.3-11.1 6.3-11 6.4 11.1zm-27.1-.2h-12.8l-6.4-11.1h12.8l6.4 11.1zm-13.3.2l-6.4 11-6.3-11.1 6.3-11 6.4 11.1zm-27.2-.2h-12.6l-6.4-11.1h12.6l6.4 11.1zm-13.3.2l-6.3 10.9-6.3-11 6.3-10.9 6.3 11zm-27.1-.2h-12.6l-6.4-11.1h12.6l6.4 11.1zm-13.3.2l-6.3 10.9-6.3-11 6.3-10.9 6.3 11zm-27.1-.2h-12.8l-6.4-11.1h12.8l6.4 11.1zm-13.3.2l-6.4 11-6.3-11.1 6.3-11 6.4 11.1zm-27.1-.2h-12.8l-6.4-11.1h12.8l6.4 11.1zm-13.3.2l-6.4 11-6.3-11.1 6.3-11 6.4 11.1zm-27.1-.2h-12.8l-6.4-11.1h12.8l6.4 11.1zm-13.3.2l-6.4 11-6.3-11.1 6.3-11 6.4 11.1zm-27.1-.2h-12.8l-6.4-11.1h12.8l6.4 11.1zm-13.3.2l-6.4 11-6.3-11.1 6.3-11 6.4 11.1zm-27.3-.2h-12.6l-6.4-11.1h12.6l6.4 11.1zm-13.3.2l-6.3 10.9-6.3-11 6.3-10.9 6.3 11zm-27.1-.2h-12.6l-6.4-11.1h12.6l6.4 11.1zm-13.3.2l-6.3 10.9-6.3-11 6.3-10.9 6.3 11zm-27.1-.2h-12.8l-6.4-11.1h12.8l6.4 11.1zm-13.3.2l-6.4 11-6.3-11.1 6.3-11 6.4 11.1zm-27.1-.2h-12.8L1307 47h12.8l6.3 11.2zm-13.3.2l-6.4 11-6.3-11.1 6.3-11 6.4 11.1zm-27.1-.2H1273l-6.4-11.1h12.8l6.3 11.1zm-13.3.2l-6.4 11-6.3-11.1 6.3-11 6.4 11.1zm-27.1-.2h-12.8l-6.4-11.1h12.8l6.4 11.1zm-13.3.2l-6.4 11-6.3-11.1 6.3-11 6.4 11.1zm-27.1-.2h-12.8l-6.4-11.1h12.8l6.4 11.1zm-13.3.2l-6.4 11-6.3-11.1 6.3-11 6.4 11.1zm-27.1-.2h-12.8l-6.4-11.1h12.8l6.4 11.1zm-13.3.2l-6.4 11-6.3-11.1 6.3-11 6.4 11.1zm-27.1-.2h-12.9l-6.4-11.1h12.9l6.4 11.1zm-13.3.2l-6.4 11.1-6.4-11.2 6.4-11.1 6.4 11.2zm-27.1-.2h-12.9l-6.4-11.1h12.9l6.4 11.1zm-13.3.2l-6.4 11.1-6.4-11.2 6.4-11.1 6.4 11.2zm-27.1-.2h-12.9L1024 47h12.9l6.4 11.2zm-13.3.2l-6.4 11.1-6.4-11.2 6.4-11.1 6.4 11.2zm-27.1-.2H990L983.6 47h12.9l6.4 11.2zm-13.3.2l-6.4 11.1-6.4-11.2 6.4-11.1 6.4 11.2zm-27.2-.2h-12.8L943.2 47H956l6.4 11.2zm-13.3.2l-6.4 11-6.3-11.1 6.3-11 6.4 11.1zm-27.1-.2h-12.8L902.8 47h12.8l6.4 11.2zm-13.3.2l-6.4 11-6.3-11 6.3-11 6.4 11zm-27.1-.2h-12.8L862.4 47h12.8l6.4 11.2zm-13.3.2l-6.4 11-6.3-11.1 6.3-11 6.4 11.1zm-27.1-.2h-12.8L822 47h12.8l6.4 11.2zm-13.3.2l-6.4 11-6.3-11.1 6.3-11 6.4 11.1zm-27.1-.2H788L781.6 47h12.8l6.4 11.2zm-13.3.2l-6.4 11-6.3-11.1 6.3-11 6.4 11.1zm-27.1-.2h-12.8L741.2 47H754l6.4 11.2zm-13.3.2l-6.4 11-6.3-11.1 6.3-11 6.4 11.1zm-27.2-.2h-12.6L700.8 47h12.6l6.5 11.2zm-13.3.2l-6.3 10.9-6.3-11 6.3-10.9 6.3 11zm-27.1-.2h-12.6L660.4 47H673l6.5 11.2zm-13.3.2l-6.3 10.9-6.3-11 6.3-10.9 6.3 11zm-27.1-.2h-12.8L619.9 47h12.8l6.4 11.2zm-13.3.2l-6.4 11-6.4-11 6.3-11 6.5 11zm-27.1-.2h-12.8L579.5 47h12.8l6.4 11.2zm-13.3.2l-6.4 11-6.3-11.1 6.3-11 6.4 11.1zm-27.1-.2h-12.8L539.1 47h12.8l6.4 11.2zm-13.3.2l-6.4 11-6.3-11.1 6.3-11 6.4 11.1zm-27.1-.2h-12.8L498.7 47h12.8l6.4 11.2zm-13.3.2l-6.4 11-6.3-11.1 6.3-11 6.4 11.1zm-27.3-.2h-12.6L458.3 47h12.6l6.4 11.2zm-13.3.2l-6.3 10.9-6.3-11 6.3-10.9 6.3 11zm-27.1-.2h-12.6L417.9 47h12.6l6.4 11.2zm-13.3.2l-6.3 10.9-6.3-11 6.3-10.9 6.3 11zm-27.1-.2h-12.8L377.4 47h12.8l6.3 11.2zm-13.3.2l-6.4 11-6.3-11.1 6.3-11 6.4 11.1zm-27.1-.2h-12.8L337 47h12.8l6.3 11.2zm-13.3.2l-6.4 11-6.3-11.1 6.3-11 6.4 11.1zm-27.1-.2H303L296.6 47h12.8l6.3 11.2zm-13.3.2l-6.4 11-6.3-11.1 6.3-11 6.4 11.1zm-27.1-.2h-12.8L256.2 47H269l6.3 11.2zm-13.3.2l-6.4 11-6.3-11.1 6.3-11 6.4 11.1zm-27.1-.2h-12.8L215.8 47h12.8l6.3 11.2zm-13.3.2l-6.4 11-6.3-11.1 6.3-11 6.4 11.1zm-27.1-.2h-12.8L175.4 47h12.8l6.3 11.2zm-13.3.2l-6.4 11-6.3-11.1 6.3-11 6.4 11.1zm-27.1-.2h-12.9L134.8 47h12.9l6.4 11.2zm-13.3.2l-6.4 11.1-6.4-11.1 6.4-11.1 6.4 11.1zm-27.1-.2h-12.9L94.4 47h12.9l6.4 11.2zm-13.3.2L94 69.6l-6.4-11.2L94 47.3l6.4 11.1zm-27.1-.2H60.5L54 47h12.9l6.4 11.2zm-13.3.2l-6.4 11.1-6.4-11.2 6.4-11.1L60 58.4zm.5.3h12.8l-6.4 11.1H54l6.5-11.1zm6.8 11.4l6.3-11 6.5 11.2-6.9 11.9h0l-6.3 10.9-6.4-11.2h0l6.8-11.8h0zm-.5 23.6h0l.1.1.2.4h0l6.3 10.9H60.5L47.3 82.3h13l6.5 11.4zm-13.2 24l6.4 11.1-6.4 11.2-6.4-11.2 6.4-11.1zm6.9 11.4h12.8l-6.4 11.1H54l6.5-11.1zm6.9 11.3l6.3-10.9 6.5 11.2-6.9 11.9h0L67 163.5l-6.4-11.2h0l6.8-11.8h0zm-.6 23.7h0l.1.1.2.4h0l6.3 10.9H60.5l-13.2-22.8h13l6.5 11.4zm.6-.1l6.4-11.1 6.4 11.1-6.4 11.1-6.4-11.1zm13.3.3h12.8L87 175.5H74.2l6.5-11.2zm0-.5l-6.4-11.1h12.9l6.4 11.1H80.7zm7-11.1h13l6.5 11.4h0l.1.1.2.4h0l6.3 10.9h-12.9l-13.2-22.8zm20.1 11.3l6.4-11.1 6.4 11.1-6.4 11.1-6.4-11.1zm13.3.3h12.8l-6.4 11.1h-12.8l6.4-11.1zm0-.5l-6.4-11.1h12.9l6.4 11.1h-12.9zm7-11.1h13l6.5 11.4h0l.1.1.2.4h0l6.3 10.9h-12.9l-13.2-22.8zm20.1 11.3l6.4-11.1L161 164l-6.4 11.1-6.4-11.1zm13.3.3h12.8l-6.4 11.1H155l6.5-11.1zm0-.5l-6.4-11.1H168l6.4 11.1h-12.9zm7.1-11.1h12.9l6.5 11.4h0l.1.1.2.4h0l6.3 10.9h-12.7l-13.3-22.8zm20.1 11.3l6.3-11 6.4 11-6.4 11-6.3-11zm13.3.3h12.6l-6.4 11.1h-12.7l6.5-11.1zm0-.5l-6.4-11.1h12.7l6.4 11.1H202zm27.1.2l6.3-11 6.4 11-6.4 11-6.3-11zm13.3.3H255l-6.4 11.1h-12.7l6.5-11.1zm0-.5l-6.4-11.1h12.8l6.4 11.1h-12.8zm7-11.1h12.9l6.5 11.4h0l.1.1.2.4h0l6.3 10.9h-12.8l-13.2-22.8zm20.1 11.3l6.3-11 6.4 11-6.4 11-6.3-11zm13.3.3h12.6l-6.4 11.1h-12.7l6.5-11.1zm0-.5l-6.4-11.1h12.8l6.4 11.1h-12.8zm7-11.1h12.9l6.5 11.4h0l.1.1.2.4h0l6.3 10.9H303l-13.2-22.8zm20.1 11.3l6.3-11 6.4 11-6.4 11-6.3-11zm13.3.3h12.6l-6.4 11.1h-12.7l6.5-11.1zm0-.5l-6.4-11.1h12.8l6.4 11.1h-12.8zm7-11.1h12.9l6.5 11.4h0l.1.1.2.4h0l6.3 10.9h-12.8l-13.2-22.8zm20.1 11.3l6.3-11 6.4 11-6.4 11-6.3-11zm13.3.3h12.6l-6.4 11.1h-12.7l6.5-11.1zm0-.5l-6.4-11.1H370l6.4 11.1h-12.8zm7-11.1h12.9l6.5 11.4h0l.1.1.2.4h0l6.3 10.9h-12.8l-13.2-22.8zm20.1 11.3l6.3-11 6.4 11-6.4 11-6.3-11zm13.3.3h12.6l-6.4 11.1h-12.7l6.5-11.1zm0-.5l-6.4-11.1h12.8l6.4 11.1H404zm7.2-11.1h12.7l6.5 11.4h0l.1.1.2.4h0l6.3 10.9h-12.6l-13.2-22.8zm20 11.3l6.3-10.9 6.3 10.9-6.3 10.9-6.3-10.9zm13.3.3H457l-6.4 11.1H438l6.5-11.1zm0-.5l-6.4-11.1h12.6l6.4 11.1h-12.6zm27.1.2l6.3-10.9 6.3 10.9-6.3 10.9-6.3-10.9zm13.3.3h12.6l-6.4 11.1h-12.6l6.4-11.1zm0-.5l-6.4-11.1h12.6l6.4 11.1h-12.6zm7-11.1h12.9l6.5 11.4h0l.1.1.2.4h0l6.3 10.9h-12.8l-13.2-22.8zM512 164l6.3-11 6.4 11-6.4 11-6.3-11zm13.3.3H538l-6.4 11.1h-12.7l6.4-11.1zm0-.5l-6.4-11.1h12.8l6.4 11.1h-12.8zm7-11.1h12.9l6.5 11.4h0l.1.1.2.4h0l6.3 10.9h-12.8l-13.2-22.8zm20.1 11.3l6.3-11 6.4 11-6.4 11-6.3-11zm13.3.3h12.6l-6.4 11.1h-12.7l6.5-11.1zm0-.5l-6.4-11.1H572l6.4 11.1h-12.7zm7-11.1h12.9l6.5 11.4h0l.1.1.2.4h0l6.3 10.9h-12.8l-13.2-22.8zm20.1 11.3l6.3-11 6.4 11-6.4 11-6.3-11zm13.3.3h12.6l-6.4 11.1h-12.7l6.5-11.1zm0-.5l-6.4-11.1h12.8l6.4 11.1h-12.8zm7-11.1H626l6.5 11.4h0l.1.1.2.4h0l6.3 10.9h-12.8l-13.2-22.8zm20.1 11.3l6.3-11 6.4 11-6.4 11-6.3-11zm13.3.3h12.6l-6.4 11.1H640l6.5-11.1zm0-.5l-6.4-11.1h12.8l6.4 11.1h-12.8zm7.2-11.1h12.7l6.5 11.4h0l.1.1.2.4h0l6.3 10.9h-12.6l-13.2-22.8zm20.1 11.3l6.3-10.9 6.3 10.9-6.4 11-6.2-11zm13.2.3h12.5l-6.4 11.1h-12.6l6.5-11.1zm0-.5l-6.4-11.1h12.6l6.4 11.1H687zm27.2.2l6.3-10.9 6.3 10.9-6.3 10.9-6.3-10.9zm13.2.3H740l-6.4 11.1H721l6.4-11.1zm0-.5l-6.4-11.1h12.6l6.4 11.1h-12.6zm7.1-11.1h12.9l6.5 11.4h0l.1.1.2.4h0l6.3 10.9h-12.8l-13.2-22.8zm20.1 11.3l6.3-11 6.4 11-6.4 11-6.3-11zm13.2.3h12.6l-6.4 11.1h-12.7l6.5-11.1zm0-.5l-6.4-11.1h12.8l6.4 11.1h-12.8zm7.1-11.1h12.9l6.5 11.4h0l.1.1.2.4h0l6.3 10.9H788l-13.1-22.8zM795 164l6.3-11 6.4 11-6.4 11-6.3-11zm13.2.3h12.6l-6.4 11.1h-12.7l6.5-11.1zm0-.5l-6.4-11.1h12.8l6.4 11.1h-12.8zm7.1-11.1h12.9l6.5 11.4h0l.1.1.2.4h0l6.3 10.9h-12.8l-13.2-22.8zm20.1 11.3l6.3-11 6.4 11-6.4 11-6.3-11zm13.2.3h12.6l-6.4 11.1h-12.7l6.5-11.1zm0-.5l-6.4-11.1H855l6.4 11.1h-12.8zm7.1-11.1h12.9l6.5 11.4h0l.1.1.2.4h0l6.3 10.9h-12.8l-13.2-22.8zm20.1 11.3l6.3-11 6.4 11-6.4 11-6.3-11zm13.2.3h12.6l-6.4 11.1h-12.7l6.5-11.1zm0-.5l-6.4-11.1h12.8l6.4 11.1H889zm7.1-11.1H909l6.5 11.4h0l.1.1.2.4h0l6.3 10.9h-12.8l-13.2-22.8zm20.1 11.3l6.3-11 6.4 11-6.4 11-6.3-11zm13.2.3H942l-6.4 11.1H923l6.4-11.1zm0-.5l-6.4-11.1h12.8l6.4 11.1h-12.8zm7.1-11.1h12.9l6.5 11.4h0l.1.1.2.4h0l6.3 10.9h-12.8l-13.2-22.8zm20.1 11.3l6.3-11 6.4 11-6.4 11-6.3-11zm13.2.3h0 .2 12.6l-6.4 11.1H970h-.1-6.5l6.4-11.1zm.2-.5h-.1 0l-6.4-11.1h6.5.1 6.3l6.4 11.1H970zm6.9-11.1h13l6.5 11.4h0l.1.1.2.4h0l6.3 10.9h-12.9l-13.2-22.8zM997 164l6.4-11.1 6.4 11.1-6.4 11.1L997 164zm13.3.3h12.8l-6.4 11.1h-12.8l6.4-11.1zm0-.5l-6.4-11.1h12.9l6.4 11.1h-12.9zm7-11.1h13l6.5 11.4h0l.1.1.2.4h0l6.3 10.9h-12.9l-13.2-22.8zm20.1 11.3l6.4-11.1 6.4 11.1-6.4 11.1-6.4-11.1zm13.3.3h12.8l-6.4 11.1h-12.8l6.4-11.1zm0-.5l-6.4-11.1h12.9l6.4 11.1h-12.9zm7-11.1h13l6.5 11.4h0l.1.1.2.4h0l6.3 10.9h-12.9l-13.2-22.8zm20.1 11.3l6.4-11.1 6.4 11.1-6.4 11.1-6.4-11.1zm13.3.3h12.8l-6.4 11.1h-12.8l6.4-11.1zm0-.5l-6.4-11.1h12.9l6.4 11.1h-12.9zm7-11.1h13l6.5 11.4h0l.1.1.2.4h0l6.3 10.9h-12.9l-13.2-22.8zm20.1 11.3l6.4-11.1 6.4 11.1-6.4 11.1-6.4-11.1zm13.3.3h12.8l-6.4 11.1H1125l6.5-11.1zm0-.5l-6.4-11.1h12.9l6.4 11.1h-12.9zm7.1-11.1h12.9l6.5 11.4h0l.1.1.2.4h0l6.3 10.9h-12.8l-13.2-22.8zm20.1 11.3l6.3-11 6.4 11-6.4 11-6.3-11zm13.3.3h12.6l-6.4 11.1h-12.7l6.5-11.1zm0-.5l-6.4-11.1h12.7l6.4 11.1H1172zm27.1.2l6.3-11 6.4 11-6.4 11-6.3-11zm13.3.3h12.6l-6.4 11.1h-12.7l6.5-11.1zm0-.5l-6.4-11.1h12.8l6.4 11.1h-12.8zm7-11.1h12.9l6.5 11.4h0l.1.1.2.4h0l6.3 10.9h-12.8l-13.2-22.8zm20.1 11.3l6.3-11 6.4 11-6.4 11-6.3-11zm13.3.3h12.6l-6.4 11.1h-12.7l6.5-11.1zm0-.5l-6.4-11.1h12.8l6.4 11.1h-12.8zm7-11.1h12.9l6.5 11.4h0l.1.1.2.4h0l6.3 10.9H1273l-13.2-22.8zm20.1 11.3l6.3-11 6.4 11-6.4 11-6.3-11zm13.3.3h12.6l-6.4 11.1h-12.7l6.5-11.1zm0-.5l-6.4-11.1h12.8l6.4 11.1h-12.8zm7-11.1h12.9l6.5 11.4h0l.1.1.2.4h0l6.3 10.9h-12.8l-13.2-22.8zm20.1 11.3l6.3-11 6.4 11-6.4 11-6.3-11zm13.3.3h12.6l-6.4 11.1h-12.7l6.5-11.1zm0-.5l-6.4-11.1h12.8l6.4 11.1h-12.8zm7-11.1h12.9l6.5 11.4h0l.1.1.2.4h0l6.3 10.9h-12.8l-13.2-22.8zm20.1 11.3l6.3-11 6.4 11-6.4 11-6.3-11zm13.3.3h12.6l-6.4 11.1h-12.7l6.5-11.1zm0-.5l-6.4-11.1h12.8l6.4 11.1H1374zm7.2-11.1h12.7l6.5 11.4h0l.1.1.2.4h0l6.3 10.9h-12.6l-13.2-22.8zm20 11.3l6.3-10.9 6.3 10.9-6.3 10.9-6.3-10.9zm13.3.3h12.5l-6.4 11.1H1408l6.5-11.1zm0-.5l-6.4-11.1h12.6l6.4 11.1h-12.6zm27.1.2l6.3-10.9 6.3 10.9-6.3 10.9-6.3-10.9zm13.3.3h12.6l-6.4 11.1h-12.6l6.4-11.1zm0-.5l-6.4-11.1h12.6l6.4 11.1h-12.6zm7-11.1h12.9l6.5 11.4h0l.1.1.2.4h0l6.3 10.9h-12.8l-13.2-22.8zM1482 164l6.3-11 6.4 11-6.4 11-6.3-11zm13.3.3h12.6l-6.4 11.1h-12.7l6.5-11.1zm0-.5l-6.4-11.1h12.8l6.4 11.1h-12.8zm7-11.1h12.9l6.5 11.4h0l.1.1.2.4h0l6.3 10.9h-12.8l-13.2-22.8zm20.1 11.3l6.3-11 6.4 11-6.4 11-6.3-11zm13.3.3h12.6l-6.4 11.1h-12.7l6.5-11.1zm0-.5l-6.4-11.1h12.8l6.4 11.1h-12.8zm7-11.1h12.9l6.5 11.4h0l.1.1.2.4h0l6.3 10.9h-12.8l-13.2-22.8zm20.1 11.3l6.3-11 6.4 11-6.4 11-6.3-11zm13.3.3h12.6l-6.4 11.1h-12.7l6.5-11.1zm0-.5l-6.4-11.1h12.8l6.4 11.1h-12.8zm7-11.1h12.9l6.5 11.4h0l.1.1.2.4h0l6.3 10.9h-12.8l-13.2-22.8zm20.1 11.3l6.3-11 6.4 11-6.4 11-6.3-11zm13.3.3h12.6l-6.4 11.1H1610l6.5-11.1zm0-.5l-6.4-11.1h12.8l6.4 11.1h-12.8zm7.2-11.1h12.7l6.5 11.4h0l.1.1.2.4h0l6.3 10.9h-12.6l-13.2-22.8zm20.1 11.3l6.3-10.9 6.3 10.9-6.4 11-6.2-11zm13.2.3h12.5l-6.4 11.1h-12.6l6.5-11.1zm0-.5l-6.4-11.1h12.6l6.4 11.1H1657zm27.2.2l6.3-10.9 6.3 10.9-6.3 10.9-6.3-10.9zm13.2.3h12.6l-6.4 11.1H1691l6.4-11.1zm0-.5l-6.4-11.1h12.6l6.4 11.1h-12.6zm7.1-11.1h12.9l6.5 11.4h0l.1.1.2.4h0l6.3 10.9h-12.8l-13.2-22.8zm20.1 11.3l6.3-11 6.4 11-6.4 11-6.3-11zm13.2.3h12.6l-6.4 11.1h-12.7l6.5-11.1zm0-.5l-6.4-11.1h12.8l6.4 11.1h-12.8zm7.1-11.1h12.9l6.5 11.4h0l.1.1.2.4h0l6.3 10.9H1758l-13.1-22.8zM1765 164l6.3-11 6.4 11-6.4 11-6.3-11zm13.2.3h12.6l-6.4 11.1h-12.7l6.5-11.1zm0-.5l-6.4-11.1h12.8l6.4 11.1h-12.8zm7.1-11.1h12.9l6.5 11.4h0l.1.1.2.4h0l6.3 10.9h-12.8l-13.2-22.8zm20.1 11.3l6.3-11 6.4 11-6.4 11-6.3-11zm13.2.3h12.6l-6.4 11.1h-12.7l6.5-11.1zm0-.5l-6.4-11.1h12.8l6.4 11.1h-12.8zm7.1-11.1h12.9l6.5 11.4h0l.1.1.2.4h0l6.3 10.9h-12.8l-13.2-22.8zm20.1 11.3l6.3-11 6.4 11-6.4 11-6.3-11zm13.2.3h12.6l-6.4 11.1h-12.7l6.5-11.1zm0-.5l-6.4-11.1h12.8l6.4 11.1H1859zm7.1-11.1h12.9l6.5 11.4h0l.1.1.2.4h0l6.3 10.9h-12.8l-13.2-22.8zm20.1 11.3l6.3-11 6.4 11-6.4 11-6.3-11zm5.8-11.4l-6.2 10.8-6.4-11.1h0l6.8-11.8h-.1l6.3-10.8 6.5 11.1-6.9 11.8h0zm-12.7-24l-6.4-11.1h12.8l6.4 11.1h-12.8zm-7.5-11.2h0l-6.2 10.8-6.4-11.1h0l6.8-11.8h-.1l6.2-10.8 6.4 11-6.7 11.9zm-5.7-35.1h12.9l6.5 11.4h0l.1.1.2.4h0l6.3 10.9h-12.8l-13.2-22.8zm20.1 11.4l6.3-11 6.4 11-6.4 11-6.3-11zm5.8-11.4l-6.2 10.8-6.4-11.1h0l6.8-11.8h-.1 0l6.3-10.9 6.5 11.1-6.9 11.9h0zm-12.7-24.1l-6.4-11.1h12.8l6.4 11.1h-12.8zm-7.5-11.2h0l-6.2 10.8-6.4-11.1h0l6.8-11.8h0l6.2-10.8 6.4 11-6.8 11.9zm-6.6-12.2h-12.6l6.4-11.1h12.6l-6.4 11.1zm-.3.5l-6.4 11.1h-26.1l6.4-11.1h0 26.1zM1831.4 47h0l-6.2 10.8-6.4-11.1h0l6.8-11.8h0l6.2-10.8 6.4 11-6.8 11.9zm-6.6-12.2h-12.6l6.4-11.1h12.6l-6.4 11.1zm-.3.5l-6.4 11.1H1792l6.4-11.1h0 26.1zM1791 47h0l-6.2 10.8-6.4-11.1h0l6.8-11.8h0l6.2-10.8 6.4 11L1791 47zm-6.6-12.2h-12.6l6.4-11.1h12.6l-6.4 11.1zm-.3.5l-6.4 11.1h-26.1l6.4-11.1h0 26.1zM1750.6 47h0l-6.2 10.8-6.4-11.1h0l6.8-11.8h0l6.2-10.8 6.4 11-6.8 11.9zm-6.6-12.2h-12.6l6.4-11.1h12.6l-6.4 11.1zm-.3.5l-6.4 11.1h-26.1l6.4-11.1h26.1zM1710.2 47h0l-6.2 10.8-6.4-11.1h0l6.8-11.8h0l6.2-10.8 6.4 11-6.8 11.9zm-5.8-13.6l-.8 1.4H1691l6.4-11.1h12.6l-5.6 9.7zm-1.1 1.9l-1.5 2.5-5 8.6h-26.1l6.4-11.1h0 26.2zM1669.7 47h0l-6.1 10.7-6.3-11h0l6.8-11.8h0l6.2-10.7 6.3 10.9-6.9 11.9zm-6.6-12.2h-12.5l6.4-11.1h12.4l-6.3 11.1zm-.3.5l-6.4 11.1h-26l6.4-11.1h0 26zM1629.3 47h0l-6.1 10.7-6.3-11-.1-.1 4.9-8.5 1.9-3.2h0l.7-1.2 5.5-9.6 6.4 11-6.9 11.9zm-6.6-12.2h-12.6l6.4-11.1h12.6l-6.4 11.1zm-.3.5l-6.4 11.1h-26.1l6.4-11.1h0 26.1zM1588.9 47h0l-6.2 10.8-6.4-11.1h0l6.8-11.8h0l6.2-10.8 6.4 11-6.8 11.9zm-6.6-12.2h-12.6l6.4-11.1h12.6l-6.4 11.1zm-.3.5l-6.4 11.1h-26.1l6.4-11.1h0 26.1zM1548.5 47h0l-6.2 10.8-6.4-11.1h0l6.8-11.8h0l6.2-10.8 6.4 11-6.8 11.9zm-6.6-12.2h-12.6l6.4-11.1h12.6l-6.4 11.1zm-.3.5l-6.4 11.1h-26.1l6.4-11.1h0 26.1zM1508.1 47h0l-6.2 10.8-6.4-11.1h0l6.8-11.8h0l6.2-10.8 6.4 11-6.8 11.9zm-6.6-12.2h-12.6l6.4-11.1h12.6l-6.4 11.1zm-.3.5l-6.4 11.1h-26.1l6.4-11.1h26.1zM1467.7 47h0l-6.2 10.8-6.4-11.1h0l6.8-11.8h0l6.2-10.8 6.4 11-6.8 11.9zm-5.8-13.6l-.8 1.4h-12.6l6.4-11.1h12.6l-5.6 9.7zm-1.1 1.9l-1.4 2.5-5 8.6h-26.1l6.4-11.1h0 26.1zM1427.1 47h0l-6.1 10.7-6.3-11h0l6.8-11.8h0l6.2-10.7 6.3 10.9-6.9 11.9zm-6.5-12.2h-12.5l6.4-11.1h12.4l-6.3 11.1zm-.3.5l-6.4 11.1h-26l6.4-11.1h0 26zM1386.7 47h0l-6.1 10.7-6.3-11-.1-.1 4.9-8.5 1.9-3.2h0l.7-1.2 5.6-9.6 6.4 11-7 11.9zm-6.5-12.2h-12.6l6.4-11.1h12.6l-6.4 11.1zm-.3.5l-6.4 11.1h-26.1l6.4-11.1h0 26.1zM1346.3 47h0l-6.2 10.8-6.4-11.1h0l6.8-11.8h0l6.2-10.8 6.4 11-6.8 11.9zm-6.5-12.2h-12.6l6.4-11.1h12.6l-6.4 11.1zm-.3.5l-6.4 11.1H1307l6.4-11.1h0 26.1zM1305.9 47h0l-6.2 10.8-6.4-11.1h0l6.8-11.8h0l6.2-10.8 6.4 11-6.8 11.9zm-6.5-12.2h-12.6l6.4-11.1h12.6l-6.4 11.1zm-.3.5l-6.4 11.1h-26.1l6.4-11.1h0 26.1zM1265.5 47h0l-6.2 10.8-6.4-11.1h0l6.8-11.8h0L1266 24l6.4 11-6.9 12zm-6.5-12.2h-12.6l6.4-11.1h12.6l-6.4 11.1zm-.3.5l-6.4 11.1h-26.1l6.4-11.1h26.1zM1225.1 47h0l-6.2 10.8-6.4-11.1h0l6.8-11.8h0l6.2-10.8 6.4 11-6.8 11.9zm-6.5-12.2H1206l6.4-11.1h12.6l-6.4 11.1zm-.3.5l-6.4 11.1h-26.1l6.4-11.1h0 26.1zM1184.7 47h0l-6.2 10.8-6.4-11.1h0l6.8-11.8h0l6.2-10.8 6.4 11-6.8 11.9zm-6.5-12.2h-12.6l6.4-11.1h12.6l-6.4 11.1zm-.3.5l-6.4 11.1h-26.1l6.4-11.1h0 26.1zM1144.3 47h0l-6.2 10.8-6.4-11.1-.1-.1 4.9-8.5 1.9-3.2h0l.7-1.2 5.6-9.7 6.5 11.1-6.9 11.9zm-6.5-12.2H1125l6.4-11.1h12.7l-6.3 11.1zm-.3.5l-6.4 11.1h-26.2l6.4-11.1h0 26.2zM1103.9 47h0l-6.3 10.9-6.4-11.2h0l6.8-11.8h0l6.3-10.9 6.5 11.1-6.9 11.9zm-6.5-12.2h-12.8l6.4-11.1h12.7l-6.3 11.1zm-.3.5l-6.4 11.1h-26.2l6.4-11.1h0 26.2zM1063.5 47h0l-6.3 10.9-6.4-11.2h0l6.8-11.8h0l6.3-10.9 6.5 11.1-6.9 11.9zm-6.5-12.2h-12.8l6.4-11.1h12.7l-6.3 11.1zm-.3.5l-6.4 11.1H1024l6.4-11.1h0 26.3zM1023.1 47h0l-6.3 10.9-6.4-11.2h0l6.8-11.8h0l6.3-10.9 6.5 11.1-6.9 11.9zm-6.5-12.2h-12.8l6.4-11.1h12.7l-6.3 11.1zm-.3.5l-6.4 11.1h-26.2l6.4-11.1h26.2zM982.7 47h0l-6.3 10.9-6.4-11.2h0l6.8-11.8h0l6.3-10.9 6.5 11.1-6.9 11.9zm-6.5-12.2H970h-.1-6.5l6.4-11.1h0 .1 12.6l-6.3 11.1zm-6.3.5h.1 5.9L970 45.6v-.1l-.6 1h-26.2l6.4-11.1h0 20.3zM942.2 47h0L936 57.8l-6.4-11.1h0l6.8-11.8h0l6.2-10.8 6.4 11-6.8 11.9zm-6.6-12.2H923l6.4-11.1H942l-6.4 11.1zm-.3.5L929 46.5h-26.1l6.4-11.1h26zM901.8 47h0l-6.2 10.8-6.4-11.1h0l6.8-11.8h0l6.2-10.8 6.4 11-6.8 11.9zm-6.6-12.2h-12.6l6.4-11.1h12.6l-6.4 11.1zm-.3.5l-6.4 11.1h-26.1l6.4-11.1h0 26.1zM861.4 47h0l-6.2 10.8-6.4-11.1h0l6.8-11.8h0l6.2-10.8 6.4 11-6.8 11.9zm-6.6-12.2h-12.6l6.4-11.1h12.6l-6.4 11.1zm-.3.5l-6.4 11.1H822l6.4-11.1h0 26.1zM821 47h0l-6.2 10.8-6.4-11.1h0l6.8-11.8h0l6.2-10.8 6.4 11L821 47zm-6.6-12.2h-12.6l6.4-11.1h12.6l-6.4 11.1zm-.3.5l-6.4 11.1h-26.1l6.4-11.1h0 26.1zM780.6 47h0l-6.2 10.8-6.4-11.1h0l6.8-11.8h0l6.2-10.8 6.4 11-6.8 11.9zM774 34.8h-12.6l6.4-11.1h12.6L774 34.8zm-.3.5l-6.4 11.1h-26.1l6.4-11.1h26.1zM740.2 47h0L734 57.8l-6.4-11.1h0l6.8-11.8h0l6.2-10.8 6.4 11-6.8 11.9zm-5.8-13.6l-.8 1.4H721l6.4-11.1H740l-5.6 9.7zm-1.1 1.9l-1.5 2.5-5 8.6h-26.1l6.4-11.1h0 26.2zM699.7 47h0l-6.1 10.7-6.3-11h0l6.8-11.8h0l6.2-10.7 6.3 10.9-6.9 11.9zm-6.6-12.2h-12.5l6.4-11.1h12.4l-6.3 11.1zm-.3.5l-6.4 11.1h-26l6.4-11.1h0 26zM659.3 47h0l-6.1 10.7-6.3-11-.1-.1 4.9-8.5 1.9-3.2h0l.7-1.2 5.5-9.6 6.4 11-6.9 11.9zm-6.6-12.2h-12.6l6.4-11.1h12.6l-6.4 11.1zm-.3.5L646 46.5h-26.1l6.4-11.1h0 26.1zM618.9 47h0l-6.2 10.8-6.4-11.1h0l6.8-11.8h0l6.2-10.8 6.4 11-6.8 11.9zm-6.6-12.2h-12.6l6.4-11.1h12.6l-6.4 11.1zm-.3.5l-6.4 11.1h-26.1l6.4-11.1h0H612zM578.5 47h0l-6.2 10.8-6.4-11.1h0l6.8-11.8h0l6.2-10.8 6.4 11-6.8 11.9zm-6.6-12.2h-12.6l6.4-11.1h12.6l-6.4 11.1zm-.3.5l-6.4 11.1h-26.1l6.4-11.1h0 26.1zM538.1 47h0l-6.2 10.8-6.4-11.1h0l6.8-11.8h0l6.2-10.8 6.4 11-6.8 11.9zm-6.6-12.2h-12.6l6.4-11.1h12.6l-6.4 11.1zm-.3.5l-6.4 11.1h-26.1l6.4-11.1h26.1zM497.7 47h0l-6.2 10.8-6.4-11.1h0l6.8-11.8h0l6.2-10.8 6.4 11-6.8 11.9zm-5.8-13.6l-.8 1.4h-12.6l6.4-11.1h12.6l-5.6 9.7zm-1.1 1.9l-1.4 2.5-5 8.6h-26.1l6.4-11.1h0 26.1zM457.1 47h0L451 57.7l-6.3-11h0l6.8-11.8h0l6.2-10.7 6.3 10.9-6.9 11.9zm-6.5-12.2h-12.5l6.4-11.1H457l-6.4 11.1zm-.3.5l-6.4 11.1h-26l6.4-11.1h0 26zM416.7 47h0l-6.1 10.7-6.3-11-.1-.1 4.9-8.5 1.9-3.2h0l.7-1.2 5.6-9.6 6.4 11-7 11.9zm-6.5-12.2h-12.6l6.4-11.1h12.6l-6.4 11.1zm-.3.5l-6.4 11.1h-26.1l6.4-11.1h0 26.1zM376.3 47h0l-6.2 10.8-6.4-11.1h0l6.8-11.8h0l6.2-10.8 6.4 11-6.8 11.9zm-6.5-12.2h-12.6l6.4-11.1h12.6l-6.4 11.1zm-.3.5l-6.4 11.1H337l6.4-11.1h0 26.1zM335.9 47h0l-6.2 10.8-6.4-11.1h0l6.8-11.8h0l6.2-10.8 6.4 11-6.8 11.9zm-6.5-12.2h-12.6l6.4-11.1h12.6l-6.4 11.1zm-.3.5l-6.4 11.1h-26.1l6.4-11.1h0 26.1zM295.5 47h0l-6.2 10.8-6.3-11.1h0l6.8-11.8h0L296 24l6.4 11-6.9 12zM289 34.8h-12.6l6.4-11.1h12.6L289 34.8zm-.3.5l-6.4 11.1h-26.1l6.4-11.1h26.1zM255.1 47h0l-6.2 10.8-6.4-11.1h0l6.8-11.8h0l6.2-10.8 6.4 11-6.8 11.9zm-6.5-12.2H236l6.4-11.1H255l-6.4 11.1zm-.3.5l-6.4 11.1h-26.1l6.4-11.1h0 26.1zM214.7 47h0l-6.2 10.8-6.4-11.1h0l6.8-11.8h0l6.2-10.8 6.4 11-6.8 11.9zm-6.5-12.2h-12.6l6.4-11.1h12.6l-6.4 11.1zm-.3.5l-6.4 11.1h-26.1l6.4-11.1h0 26.1zM174.3 47h0l-6.2 10.8-6.4-11.1-.1-.1 4.9-8.5 1.9-3.2h0l.7-1.2 5.6-9.7 6.5 11.1-6.9 11.9zm-6.5-12.2H155l6.4-11.1h12.7l-6.3 11.1zm-.3.5l-6.4 11.1h-26.2l6.4-11.1h0 26.2zM133.9 47h0l-6.3 10.9-6.4-11.2h0l6.8-11.8h0l6.3-10.9 6.5 11.1-6.9 11.9zm-6.5-12.2h-12.8l6.4-11.1h12.7l-6.3 11.1zm-.3.5l-6.4 11.1H94.4l6.4-11.1h0 26.3zM93.5 47h0l-6.3 10.9-6.4-11.2h0l6.8-11.8h0l6.4-11 6.5 11.1-7 12zM87 34.8H74.2l6.4-11.1h12.7L87 34.8zm-.3.5l-6.4 11.1H54l6.4-11.1h0 26.3zM53.1 47h0l-6.3 10.9-6.4-11.2h0l6.8-11.8h0L53.5 24 60 35.1 53.1 47zm-6.5-12.2H33.8l6.4-11.1H53l-6.4 11.1zm-.3.5l-6.4 11.1H13.6L20 35.3h26.3zM26.5 47l6.4 11.1H20.1L13.6 47h12.9zm.6 0h13l6.5 11.4h0l.1.1.2.4h0l6.3 10.9H40.3L27.1 47zm39.4 23.6l-6.4 11.1H33.8l6.4-11.1h26.3zM46.7 82.3l6.4 11.1H40.3l-6.4-11.1h12.8zm-6.9 11.4l-6.4 11.1L27 93.7l6.4-11.1 6.4 11.1zm6.5 12l-6.4 11.1H13.6l6.4-11.1h26.3zm-19.8 11.7l6.4 11.1H20.1l-6.4-11.1h12.8zm.6 0h13l6.5 11.4h0l.1.1.2.4h0l6.3 10.9H40.3l-13.2-22.8zm39.4 23.5L60.1 152H33.8l6.4-11.1h26.3zm-19.8 11.8l6.4 11.1H40.3l-6.4-11.1h12.8zm6.3 11.6l-6.4 11.1H33.8l6.4-11.1H53zm-13.2-.2l-6.4 11.1L27 164l6.4-11.1 6.4 11.2zm6.5 12l-6.4 11.1H13.6l6.4-11.1h26.3zm14.2 0h26.2l-6.4 11.1H54l6.5-11.1zm40.4 0h26.2l-6.4 11.1H94.4l6.5-11.1zm40.4 0h26.2l-6.4 11.1h-26.2l6.4-11.1zm40.5 0h26.1l-6.4 11.1h-26.1l6.4-11.1zm40.4 0h26.1l-6.4 11.1h-26.1l6.4-11.1zm40.4 0h26.1l-6.4 11.1h-26.1l6.4-11.1zm40.4 0h26.1l-6.4 11.1h-26.1l6.4-11.1zm40.4 0h26.1l-6.4 11.1H337l6.4-11.1zm40.4 0h26.1l-6.4 11.1h-26.1l6.4-11.1zm40.5 0h26l-6.4 11.1h-26l6.4-11.1zm40.4 0h26.1l-1.4 2.5-5 8.6h-26.1l6.4-11.1zm40.4 0h26.1l-6.4 11.1h-26.1l6.4-11.1zm40.4 0h0 26.1l-6.4 11.1h-26.1l6.4-11.1zm40.4 0H612l-6.4 11.1h-26.1l6.4-11.1zm40.4 0h26.1l-6.4 11.1h-26.1l6.4-11.1zm40.6 0h26l-6.4 11.1h-26l6.4-11.1zm40.4 0h26.1l-1.4 2.5-5 8.6h-26.1l6.4-11.1zm40.4 0h26.1l-6.4 11.1h-26.1l6.4-11.1zm40.3 0h0 26.1l-6.4 11.1h-26.1l6.4-11.1zm40.5 0h26.1l-6.4 11.1H822l6.5-11.1zm40.4 0H895l-6.4 11.1h-26.1l6.4-11.1zm40.4 0h26.1l-6.4 11.1h-26.1l6.4-11.1zm80.8 0h26.2l-6.4 11.1h-26.2l6.4-11.1zm40.4 0h26.2l-6.4 11.1H1024l6.5-11.1zm40.4 0h26.2l-6.4 11.1h-26.2l6.4-11.1zm40.4 0h26.2l-6.4 11.1h-26.2l6.4-11.1zm40.5 0h26.1l-6.4 11.1h-26.1l6.4-11.1zm40.4 0h26.1l-6.4 11.1h-26.1l6.4-11.1zm40.4 0h26.1l-6.4 11.1h-26.1l6.4-11.1zm40.4 0h26.1l-6.4 11.1h-26.1l6.4-11.1zm40.4 0h26.1l-6.4 11.1H1307l6.4-11.1zm40.4 0h26.1l-6.4 11.1h-26.1l6.4-11.1zm40.5 0h26l-6.4 11.1h-26l6.4-11.1zm40.4 0h26.1l-1.4 2.5-5 8.6h-26.1l6.4-11.1zm40.4 0h26.1l-6.4 11.1h-26.1l6.4-11.1zm40.4 0h0 26.1l-6.4 11.1h-26.1l6.4-11.1zm40.4 0h26.1l-6.4 11.1h-26.1l6.4-11.1zm40.4 0h26.1l-6.4 11.1h-26.1l6.4-11.1zm40.6 0h26l-6.4 11.1h-26l6.4-11.1zm40.4 0h26.1l-1.4 2.5-5 8.6h-26.1l6.4-11.1zm40.4 0h26.1l-6.4 11.1h-26.1l6.4-11.1zm40.3 0h0 26.1l-6.4 11.1h-26.1l6.4-11.1zm40.5 0h26.1l-6.4 11.1H1792l6.5-11.1zm40.4 0h26.1l-6.4 11.1h-26.1l6.4-11.1zm40.4 0h26.1l-6.4 11.1h-26.1l6.4-11.1zm13.7-.6l6.4-11.1h12.6l-6.4 11.1H1893zm6.4-11.7l-6.4-11.1h12.8l6.4 11.1h-12.8zm-6.4-11.7l6.4-11.1h26.1l-6.4 11.1H1893zm20.2-11.9l6.4-11.1h12.7l-6.4 11.1h-12.7zm-.5-.3l-6.3-11.1 6.3-11 6.4 11-6.4 11.1zm-13.7-23h-26.1l6.4-11.1h26.1l-6.4 11.1zm-6-11.8l6.4-11.1h12.6l-6.4 11.1H1893zm6.4-11.6l-6.4-11.1h12.8l6.4 11.1h-12.8zm-6.4-11.8l6.4-11.1h26.1l-6.4 11.1H1893zm20.2-11.9l6.4-11.1h12.7l-6.4 11.1h-12.7zm-.5-.3l-6.3-11.1 6.3-11 6.4 11-6.4 11.1zm-13.7-23h-26.1l6.4-11.1h26.1l-6.4 11.1zm-6-11.7l6.4-11.1h12.6l-6.4 11.1H1893zm-.5-22.5l6.4 11-6.4 11-6.3-11.1 6.3-10.9zm-7.1 11.1h0l.1.1.2.4h0l6.3 10.9h-12.8L1866.1 12h12.9l6.4 11.4zM1859 .3h26.1l-6.4 11.1h-26.1L1859 .3zm6.4 11.7l6.4 11.1H1859l-6.4-11.1h12.8zm-13.3.3l6.4 11-6.4 11-6.3-11.1 6.3-10.9zm-7.1 11.1h0l.1.1.2.4h0l6.3 10.9h-12.8L1825.7 12h12.9l6.4 11.4zM1818.6.3h26.1l-6.4 11.1h-26.1l6.4-11.1zM1825 12l6.4 11.1h-12.8l-6.4-11.1h12.8zm-13.3.3l6.4 11-6.4 11-6.3-11.1 6.3-10.9zm-7.1 11.1h0l.1.1.2.4h0l6.3 10.9h-12.8L1785.3 12h12.9l6.4 11.4zM1778.2.3h26.1l-6.4 11.1h-26.1l6.4-11.1zm6.4 11.7l6.4 11.1h-12.8l-6.4-11.1h12.8zm-13.3.3l6.4 11-6.4 11-6.3-11.1 6.3-10.9zm-7.1 11.1h0l.1.1.2.4h0l6.3 10.9H1758L1744.9 12h12.9l6.4 11.4zM1737.8.3h26.1l-6.4 11.1h-26.1l6.4-11.1zm6.4 11.7l6.4 11.1h-12.8l-6.4-11.1h12.8zm-13.3.3l6.4 11-6.4 11-6.3-11.1 6.3-10.9zm-7.1 11.1h0l.1.1.2.4h0l6.3 10.9h-12.8L1704.5 12h12.9l6.4 11.4zM1697.4.3h26.1l-1.4 2.5-5 8.6H1691l6.4-11.1zm6.2 11.7l6.4 11.1h-12.6L1691 12h12.6zm-13.2.5l6.3 10.9-6.3 10.9-6.3-11 6.3-10.8zm-7.1 10.9h0l.1.1.2.4h0l6.3 10.9h-12.6l-6.6-11.4h0l-4.6-8-2-3.4h12.7l6.5 11.4zM1657 .3h26l-6.4 11.1h-26L1657 .3zm6.2 11.7l6.4 11.1H1657l-6.4-11.1h12.6zm-13.2.5l6.3 10.9-6.3 10.9-6.3-11 6.3-10.8zm-7.1 10.9h0l.1.1.2.4h0l6.3 10.9h-12.6L1623.7 12h12.7l6.5 11.4zM1616.5.3h26.1l-6.4 11.1h-26.1l6.4-11.1zm6.3 11.7l6.4 11.1h-12.8L1610 12h12.8zm-13.2.3l6.4 11-6.4 11-6.3-11.1 6.3-10.9zm-7.1 11.1h0l.1.1.2.4h0l6.3 10.9h-12.8L1583.1 12h12.9l6.5 11.4zM1576.1.3h26.1l-6.4 11.1h-26.1l6.4-11.1zm6.3 11.7l6.4 11.1H1576l-6.4-11.1h12.8zm-13.2.3l6.4 11-6.4 11-6.3-11.1 6.3-10.9zm-7.1 11.1h0l.1.1.2.4h0l6.3 10.9h-12.8L1542.7 12h12.9l6.5 11.4zM1535.7.3h26.1l-6.4 11.1h-26.1l6.4-11.1zM1542 12l6.4 11.1h-12.8l-6.4-11.1h12.8zm-13.2.3l6.4 11-6.4 11-6.3-11.1 6.3-10.9zm-7.1 11.1h0l.1.1.2.4h0l6.3 10.9h-12.8L1502.3 12h12.9l6.5 11.4zM1495.3.3h26.1l-6.4 11.1h-26.1l6.4-11.1zm6.3 11.7l6.4 11.1h-12.8l-6.4-11.1h12.8zm-13.2.3l6.4 11-6.4 11-6.3-11.1 6.3-10.9zm-7.1 11.1h0l.1.1.2.4h0l6.3 10.9h-12.8L1461.9 12h12.9l6.5 11.4zM1454.9.3h26.1l-1.4 2.5-5 8.6h-26.1l6.4-11.1zm6.2 11.7l6.4 11.1h-12.6l-6.4-11.1h12.6zm-13.2.5l6.3 10.9-6.3 10.9-6.3-11 6.3-10.8zm-7.1 10.9h0l.1.1.2.4h0l6.3 10.9h-12.6l-6.6-11.4h0l-4.6-8-2-3.4h12.7l6.5 11.4zM1414.5.3h26l-6.4 11.1h-26l6.4-11.1zm6.2 11.7l6.4 11.1h-12.6l-6.4-11.1h12.6zm-13.2.5l6.3 10.9-6.3 10.9-6.3-11 6.3-10.8zm-7.1 10.9h0l.1.1.2.4h0l6.3 10.9h-12.6L1381.2 12h12.7l6.5 11.4zM1374 .3h26.1l-6.4 11.1h-26.1L1374 .3zm6.3 11.7l6.4 11.1H1374l-6.4-11.1h12.7zm-13.3.3l6.4 11-6.4 11-6.3-11.1 6.3-10.9zm-7 11.1h0l.1.1.2.4h0l6.3 10.9h-12.8L1340.6 12h12.9l6.5 11.4zM1333.6.3h26.1l-6.4 11.1h-26.1l6.4-11.1zm6.3 11.7l6.4 11.1h-12.8l-6.4-11.1h12.8zm-13.3.3l6.4 11-6.4 11-6.3-11.1 6.3-10.9zm-7 11.1h0l.1.1.2.4h0l6.3 10.9h-12.8L1300.2 12h12.9l6.5 11.4zM1293.2.3h26.1l-6.4 11.1h-26.1l6.4-11.1zm6.3 11.7l6.4 11.1h-12.8l-6.4-11.1h12.8zm-13.3.3l6.4 11-6.4 11-6.3-11.1 6.3-10.9zm-7 11.1h0l.1.1.2.4h0l6.3 10.9H1273L1259.8 12h12.9l6.5 11.4zM1252.8.3h26.1l-6.4 11.1h-26.1l6.4-11.1zm6.3 11.7l6.4 11.1h-12.8l-6.4-11.1h12.8zm-13.3.3l6.4 11-6.4 11-6.3-11.1 6.3-10.9zm-7 11.1h0l.1.1.2.4h0l6.3 10.9h-12.8L1219.4 12h12.9l6.5 11.4zM1212.4.3h26.1l-6.4 11.1H1206l6.4-11.1zm6.3 11.7l6.4 11.1h-12.8l-6.4-11.1h12.8zm-13.3.3l6.4 11-6.4 11-6.3-11.1 6.3-10.9zm-7 11.1h0l.1.1.2.4h0l6.3 10.9h-12.8l-6.6-11.4h0l-4.6-8-2-3.4h12.9l6.5 11.4zM1172 .3h26.1l-6.4 11.1h-26.1L1172 .3zm6.3 11.7l6.4 11.1H1172l-6.4-11.1h12.7zm-13.3.4l6.4 11-6.4 11-6.3-11.1 6.3-10.9zm-7 11h0l.1.1.2.4h0l6.3 10.9h-12.7L1138.6 12h12.9l6.5 11.4zM1131.5.3h26.2l-6.4 11.1H1125l6.5-11.1zm6.4 11.7l6.4 11.1h-12.9L1125 12h12.9zm-13.3.2l6.4 11.1-6.4 11.1-6.4-11.2 6.4-11zm-7 11.2h0l.1.1.2.4h0l6.3 10.9h-12.9L1098.1 12h13l6.5 11.4zM1091.1.3h26.2l-6.4 11.1h-26.2l6.4-11.1zm6.4 11.7l6.4 11.1H1091l-6.4-11.1h12.9zm-13.3.2l6.4 11.1-6.4 11.1-6.4-11.2 6.4-11zm-7 11.2h0l.1.1.2.4h0l6.3 10.9h-12.9L1057.7 12h13l6.5 11.4zM1050.7.3h26.2l-6.4 11.1h-26.2l6.4-11.1zm6.4 11.7l6.4 11.1h-12.9l-6.4-11.1h12.9zm-13.3.2l6.4 11.1-6.4 11.1-6.4-11.2 6.4-11zm-7 11.2h0l.1.1.2.4h0l6.3 10.9h-12.9L1017.3 12h13l6.5 11.4zM1010.3.3h26.2l-6.4 11.1h-26.2l6.4-11.1zm6.4 11.7l6.4 11.1h-12.9l-6.4-11.1h12.9zm-13.3.2l6.4 11.1-6.4 11.1-6.4-11.1 6.4-11.1zm-7 11.2h0l.1.1.2.4h0l6.3 10.9h-12.9L976.9 12h13l6.5 11.4zM969.8.3h0 .2 26.1l-6.4 11.1H970h-.1-6.5L969.8.3zm.1 11.7h.1 6.3l6.4 11.1H970h-.1 0L963.4 12h6.5zm-7 .3l6.4 11-6.4 11-6.3-11.1 6.3-10.9zm-7.1 11.1h0l.1.1.2.4h0l6.3 10.9h-12.8L936.5 12h12.9l6.4 11.4zM929.4.3h26.1l-6.4 11.1H923L929.4.3zm6.4 11.7l6.4 11.1h-12.8L923 12h12.8zm-13.3.3l6.4 11-6.4 11-6.3-11.1 6.3-10.9zm-7.1 11.1h0l.1.1.2.4h0l6.3 10.9h-12.8L896.1 12H909l6.4 11.4zM889 .3h26.1l-6.4 11.1h-26.1L889 .3zm6.4 11.7l6.4 11.1H889L882.6 12h12.8zm-13.3.3l6.4 11-6.4 11-6.3-11.1 6.3-10.9zM875 23.4h0l.1.1.2.4h0l6.3 10.9h-12.8L855.7 12h12.9l6.4 11.4zM848.6.3h26.1l-6.4 11.1h-26.1L848.6.3zM855 12l6.4 11.1h-12.8L842.2 12H855zm-13.3.3l6.4 11-6.4 11-6.3-11.1 6.3-10.9zm-7.1 11.1h0l.1.1.2.4h0l6.3 10.9h-12.8L815.3 12h12.9l6.4 11.4zM808.2.3h26.1l-6.4 11.1h-26.1L808.2.3zm6.4 11.7l6.4 11.1h-12.8L801.8 12h12.8zm-13.3.3l6.4 11-6.4 11-6.3-11 6.3-11zm-7.1 11.1h0l.1.1.2.4h0l6.3 10.9H788L774.9 12h12.9l6.4 11.4zM767.8.3h26.1l-6.4 11.1h-26.1L767.8.3zm6.4 11.7l6.4 11.1h-12.8L761.4 12h12.8zm-13.3.3l6.4 11-6.4 11-6.3-11.1 6.3-10.9zm-7.1 11.1h0l.1.1.2.4h0l6.3 10.9h-12.8L734.5 12h12.9l6.4 11.4zM727.4.3h26.1l-1.4 2.5-5 8.6H721L727.4.3zm6.2 11.7l6.4 11.1h-12.6L721 12h12.6zm-13.2.5l6.3 10.9-6.3 10.9-6.3-11 6.3-10.8zm-7.1 10.9h0l.1.1.2.4h0l6.3 10.9h-12.6l-6.6-11.4h0l-4.6-8-2-3.4h12.7l6.5 11.4zM687 .3h26l-6.4 11.1h-26L687 .3zm6.2 11.7l6.4 11.1H687L680.6 12h12.6zm-13.2.5l6.3 10.9-6.3 10.9-6.3-11 6.3-10.8zm-7.1 10.9h0l.1.1.2.4h0l6.3 10.9h-12.6L653.7 12h12.7l6.5 11.4zM646.5.3h26.1l-6.4 11.1h-26.1L646.5.3zm6.3 11.7l6.4 11.1h-12.8L640.1 12h12.7zm-13.2.3l6.4 11-6.4 11-6.3-11.1 6.3-10.9zm-7.1 11.1h0l.1.1.2.4h0l6.3 10.9h-12.8L613.1 12H626l6.5 11.4zM606.1.3h26.1l-6.4 11.1h-26.1L606.1.3zm6.3 11.7l6.4 11.1H606L599.7 12h12.7zm-13.2.3l6.4 11-6.4 11-6.3-11.1 6.3-10.9zm-7.1 11.1h0l.1.1.2.4h0l6.3 10.9h-12.8L572.7 12h12.9l6.5 11.4zM565.7.3h26.1l-6.4 11.1h-26.1L565.7.3zM572 12l6.4 11.1h-12.8L559.3 12H572zm-13.2.3l6.4 11-6.4 11-6.3-11.1 6.3-10.9zm-7.1 11.1h0l.1.1.2.4h0l6.3 10.9h-12.8L532.3 12h12.9l6.5 11.4zM525.3.3h26.1L545 11.4h-26.1L525.3.3zm6.3 11.7l6.4 11.1h-12.8L518.9 12h12.7zm-13.2.3l6.4 11-6.4 11-6.4-11 6.4-11zm-7.1 11.1h0l.1.1.2.4h0l6.3 10.9h-12.8L491.9 12h12.9l6.5 11.4zM484.9.3H511l-1.4 2.5-5 8.6h-26.1L484.9.3zm6.2 11.7l6.4 11.1h-12.6L478.5 12h12.6zm-13.2.5l6.3 10.9-6.3 10.9-6.3-11 6.3-10.8zm-7.1 10.9h0l.1.1.2.4h0l6.3 10.9h-12.6l-6.6-11.4h0l-4.6-8-2-3.4h12.7l6.5 11.4zM444.5.3h26l-6.4 11.1h-26L444.5.3zm6.2 11.7l6.4 11.1h-12.6L438.1 12h12.6zm-13.2.5l6.3 10.9-6.3 10.9-6.3-11 6.3-10.8zm-7.1 10.9h0l.1.1.2.4h0l6.3 10.9h-12.6L411.2 12h12.7l6.5 11.4zM404 .3h26.1l-6.4 11.1h-26.1L404 .3zm6.3 11.7l6.4 11.1H404L397.6 12h12.7zm-13.3.3l6.4 11-6.4 11-6.3-11.1 6.3-10.9zm-7 11.1h0l.1.1.2.4h0l6.3 10.9h-12.8L370.6 12h12.9l6.5 11.4zM363.6.3h26.1l-6.4 11.1h-26.1L363.6.3zm6.3 11.7l6.4 11.1h-12.8L357.2 12h12.7zm-13.3.3l6.4 11-6.4 11-6.3-11.1 6.3-10.9zm-7 11.1h0l.1.1.2.4h0l6.3 10.9h-12.8L330.2 12h12.9l6.5 11.4zM323.2.3h26.1l-6.4 11.1h-26.1L323.2.3zm6.3 11.7l6.4 11.1h-12.8L316.8 12h12.7zm-13.3.3l6.4 11-6.4 11-6.3-11.1 6.3-10.9zm-7 11.1h0l.1.1.2.4h0l6.3 10.9H303L289.8 12h12.9l6.5 11.4zM282.8.3h26.1l-6.4 11.1h-26.1L282.8.3zm6.3 11.7l6.4 11.1h-12.8L276.3 12h12.8zm-13.3.3l6.4 11-6.4 11-6.3-11.1 6.3-10.9zm-7 11.1h0l.1.1.2.4h0l6.3 10.9h-12.8L249.4 12h12.9l6.5 11.4zM242.4.3h26.1l-6.4 11.1H236L242.4.3zm6.3 11.7l6.4 11.1h-12.8L235.9 12h12.8zm-13.3.3l6.4 11-6.4 11-6.3-11.1 6.3-10.9zm-7 11.1h0l.1.1.2.4h0l6.3 10.9h-12.8l-6.6-11.4h0l-4.6-8-2-3.4h12.9l6.5 11.4zM202 .3h26.1l-6.4 11.1h-26.1L202 .3zm6.3 11.7l6.4 11.1H202L195.6 12h12.7zm-13.3.4l6.4 11-6.4 11-6.3-11.1 6.3-10.9zm-7 11h0l.1.1.2.4h0l6.3 10.9h-12.7L168.6 12h12.9l6.5 11.4zM161.5.3h26.2l-6.4 11.1H155L161.5.3zm6.4 11.7l6.4 11.1h-12.9L155 12h12.9zm-13.3.2l6.4 11.1-6.4 11.1-6.4-11.2 6.4-11zm-7 11.2h0l.1.1.2.4h0l6.3 10.9h-12.9L128.1 12h13l6.5 11.4zM121.1.3h26.2l-6.4 11.1h-26.2L121.1.3zm6.4 11.7l6.4 11.1H121L114.6 12h12.9zm-13.3.2l6.4 11.1-6.4 11.1-6.4-11.2 6.4-11zm-7 11.2h0l.1.1.2.4h0l6.3 10.9h-12.9L87.7 12h13l6.5 11.4zM80.7.3h26.2l-6.4 11.1H74.2L80.7.3zM87.1 12l6.4 11.1H80.7L74.2 12h12.9zm-13.3.2l6.4 11.1-6.4 11.1-6.4-11.2 6.4-11zm-7 11.2h0l.1.1.2.4h0l6.3 10.9H60.5L47.3 12h13l6.5 11.4zM40.3.3h26.2l-6.4 11.1H33.8L40.3.3zM46.7 12l6.4 11.1H40.3L33.8 12h12.9zm-13.3.2l6.4 11.1-6.4 11.1L27 23.3l6.4-11.1zM6.9 12h13l6.5 11.4h0l.1.1.2.4h0L33 34.8H20.1L6.9 12zM.1 46.7h0l6.8-11.9h0l6.3-10.9L19.7 35l-7 12h0L6.5 57.9.1 46.7zm6.7 11.7l6.4-11.1 6.4 11.1-6.4 11.1-6.4-11.1zm6.8 11.4L20 58.7h12.8l-6.4 11.1H13.6zm13.5.3H27l6.3-11 6.5 11.2-6.9 11.9h0l-6.3 10.9-6.4-11.2h0l6.9-11.8zM6.9 82.3h13l6.5 11.4h0l.1.1.2.4h0l6.3 10.9H20.1L6.9 82.3zM.1 117.1h0l6.8-11.9h-.1l6.3-10.9 6.5 11.2-6.9 11.9h0l-6.3 10.9-6.3-11.2zm6.7 11.7l6.4-11.1 6.4 11.1-6.4 11.2-6.4-11.2zm6.8 11.4l6.4-11.1h12.8l-6.4 11.1H13.6zm13.5.2H27l6.3-10.9 6.5 11.2-6.9 11.9h0l-6.3 10.9-6.4-11.2h0l6.9-11.9zM6.9 152.7h13l6.5 11.4h0l.1.1.2.4h0l6.3 10.9H20.1L6.9 152.7zM.1 187.5h0l6.8-11.9h-.1l6.3-10.9 6.5 11.2-6.9 11.9h0l-6.3 10.9-6.3-11.2zm6.7 11.7l6.4-11.1 6.4 11.1-6.4 11.1-6.4-11.1zm19.6 11.4H13.6l6.4-11.1h12.8l-6.4 11.1zM20.1 199l-6.4-11.1h12.9L33 199H20.1zm20.2 11.6l-13.2-22.8h13l6.5 11.4h0l.1.1.2.4h0l6.3 10.9H40.3zm6.9-11.4l6.4-11.1 6.4 11.1-6.4 11.1-6.4-11.1zm19.6 11.4H54l6.4-11.1h12.8l-6.4 11.1zM60.5 199L54 187.8h12.9l6.4 11.1H60.5zm20.2 11.6l-13.2-22.8h13l6.5 11.4h0l.1.1.2.4h0l6.3 10.9H80.7zm6.9-11.4l6.4-11.1 6.4 11.1-6.4 11.2-6.4-11.2zm19.6 11.4H94.4l6.4-11.1h12.8l-6.4 11.1zm-6.3-11.6l-6.4-11.1h12.9l6.4 11.1h-12.9zm20.2 11.6l-13.2-22.8h13l6.5 11.4h0l.1.1.2.4h0l6.3 10.9h-12.9zm6.9-11.4l6.4-11.1 6.4 11.1-6.4 11.1-6.4-11.1zm19.6 11.4h-12.8l6.4-11.1H154l-6.4 11.1zm-6.3-11.6l-6.4-11.1h12.9l6.4 11.1h-12.9zm20.3 11.6l-13.2-22.8h12.9l6.5 11.4h0l.1.1.2.4h0l6.3 10.9h-12.8zm6.9-11.4l6.3-11 6.4 11-6.4 11-6.3-11zm19.5 11.4h-12.7l6.4-11.1h12.6l-6.3 11.1zm-6.2-11.6l-6.4-11.1h12.8l6.4 11.1h-12.8zm20.2 11.6l-13.2-22.8h12.9l6.5 11.4h0l.1.1.2.4h0l6.3 10.9H202zm6.9-11.4l6.3-11 6.4 11-6.4 11-6.3-11zm19.5 11.4h-12.7l6.4-11.1h12.6l-6.3 11.1zm-6.2-11.6l-6.4-11.1h12.8L235 199h-12.8zm20.2 11.6l-13.2-22.8h12.9l6.5 11.4h0l.1.1.2.4h0l6.3 10.9h-12.8zm6.9-11.4l6.3-11 6.4 11-6.4 11-6.3-11zm19.5 11.4h-12.7l6.4-11.1h12.6l-6.3 11.1zm-6.2-11.6l-6.4-11.1H269l6.4 11.1h-12.8zm20.2 11.6l-13.2-22.8h12.9l6.5 11.4h0l.1.1.2.4h0l6.3 10.9h-12.8zm6.9-11.4l6.3-11 6.4 11-6.4 11-6.3-11zm19.5 11.4h-12.7l6.4-11.1h12.6l-6.3 11.1zM303 199l-6.4-11.1h12.8l6.4 11.1H303zm20.2 11.6L310 187.8h12.9l6.5 11.4h0l.1.1.2.4h0l6.3 10.9h-12.8zm6.9-11.4l6.3-11 6.4 11-6.4 11-6.3-11zm19.5 11.4H337l6.4-11.1H356l-6.4 11.1zm-6.2-11.6l-6.4-11.1h12.8l6.4 11.1h-12.8zm20.2 11.6l-13.2-22.8h12.9l6.5 11.4h0l.1.1.2.4h0l6.3 10.9h-12.8zm6.9-11.4l6.3-11 6.4 11-6.4 11-6.3-11zm19.5 11.4h-12.7l6.4-11.1h12.6l-6.3 11.1zm-6.2-11.6l-6.4-11.1h12.8l6.4 11.1h-12.8zm20.3 11.6L391 187.8h12.7l6.5 11.4h0l.1.1.2.4h0l6.3 10.9h-12.7zm6.9-11.4l6.3-10.9 6.3 10.9-6.3 10.9-6.3-10.9zm19.4 11.4h-12.6l6.4-11.1h12.5l-6.3 11.1zm-6.1-11.6l-6.4-11.1h12.6l6.4 11.1h-12.6zm20.2 11.6l-13.2-22.8H444l6.5 11.4h0l.1.1.2.4h0l6.3 10.9h-12.6zm6.9-11.4l6.3-10.9 6.3 10.9-6.3 10.9-6.3-10.9zm19.4 11.4h-12.6l6.4-11.1h12.5l-6.3 11.1zm-6.1-11.6l-6.4-11.1h12.6l6.4 11.1h-12.6zm20.2 11.6l-13.2-22.8h12.9l6.5 11.4h0l.1.1.2.4h0l6.3 10.9h-12.8zm6.9-11.4l6.3-11 6.4 11-6.4 11-6.3-11zm19.6 11.4h-12.7l6.4-11.1h12.6l-6.3 11.1zm-6.3-11.6l-6.4-11.1h12.8l6.4 11.1h-12.8zm20.2 11.6l-13.2-22.8H525l6.5 11.4h0l.1.1.2.4h0l6.3 10.9h-12.8zm6.9-11.4l6.3-11 6.4 11-6.4 11-6.3-11zm19.6 11.4h-12.7l6.4-11.1h12.6l-6.3 11.1zm-6.3-11.6l-6.4-11.1h12.8l6.4 11.1h-12.8zm20.2 11.6l-13.2-22.8h12.9l6.5 11.4h0l.1.1.2.4h0l6.3 10.9h-12.8zm6.9-11.4l6.3-11 6.4 11-6.4 11-6.3-11zm19.6 11.4h-12.7l6.4-11.1h12.6l-6.3 11.1zm-6.3-11.6l-6.4-11.1h12.8l6.4 11.1h-12.8zm20.2 11.6L593 187.8h12.9l6.5 11.4h0l.1.1.2.4h0l6.3 10.9h-12.9zm6.9-11.4l6.3-11 6.4 11-6.4 11-6.3-11zm19.6 11.4h-12.7l6.4-11.1H639l-6.4 11.1zm-6.3-11.6l-6.4-11.1h12.8l6.4 11.1h-12.8zm20.4 11.6l-13.2-22.8h12.7l6.5 11.4h0l.1.1.2.4h0l6.3 10.9h-12.6zm6.9-11.4l6.3-10.9 6.3 10.9-6.3 10.9-6.3-10.9zm19.4 11.4h-12.6l6.4-11.1h12.5l-6.3 11.1zm-6.1-11.6l-6.4-11.1H673l6.4 11.1h-12.5zm20.2 11.6l-13.2-22.8h12.7l6.5 11.4h0l.1.1.2.4h0l6.3 10.9h-12.6zm6.9-11.4l6.3-10.9 6.3 10.9-6.3 10.9-6.3-10.9zm19.4 11.4h-12.6l6.4-11.1h12.5l-6.3 11.1zm-6.2-11.6l-6.4-11.1h12.6l6.4 11.1h-12.6zm20.3 11.6l-13.2-22.8h12.9l6.5 11.4h0l.1.1.2.4h0l6.3 10.9h-12.8zm6.9-11.4l6.3-11 6.4 11-6.4 11-6.3-11zm19.5 11.4h-12.7l6.4-11.1h12.6l-6.3 11.1zm-6.2-11.6l-6.4-11.1H754l6.4 11.1h-12.7zm20.2 11.6l-13.2-22.8h12.9l6.5 11.4h0l.1.1.2.4h0l6.3 10.9h-12.8zm6.9-11.4l6.3-11 6.4 11-6.4 11-6.3-11zm19.5 11.4h-12.7l6.4-11.1h12.6l-6.3 11.1zm-6.2-11.6l-6.4-11.1h12.8l6.4 11.1h-12.8zm20.2 11.6l-13.2-22.8H808l6.5 11.4h0l.1.1.2.4h0l6.3 10.9h-12.8zm6.9-11.4l6.3-11 6.4 11-6.4 11-6.3-11zm19.5 11.4H822l6.4-11.1H841l-6.3 11.1zm-6.2-11.6l-6.4-11.1h12.8l6.4 11.1h-12.8zm20.2 11.6l-13.2-22.8h12.9l6.5 11.4h0l.1.1.2.4h0l6.3 10.9h-12.8zm6.9-11.4l6.3-11 6.4 11-6.4 11-6.3-11zm19.5 11.4h-12.7l6.4-11.1h12.6l-6.3 11.1zm-6.2-11.6l-6.4-11.1h12.8l6.4 11.1h-12.8zm20.2 11.6l-13.2-22.8h12.9l6.5 11.4h0l.1.1.2.4h0l6.3 10.9h-12.8zm6.9-11.4l6.3-11 6.4 11-6.4 11-6.3-11zm19.5 11.4h-12.7l6.4-11.1h12.6l-6.3 11.1zm-6.2-11.6l-6.4-11.1h12.8L922 199h-12.7zm20.2 11.6l-13.2-22.8h12.9l6.5 11.4h0l.1.1.2.4h0l6.3 10.9h-12.8zm6.9-11.4l6.3-11 6.4 11-6.4 11-6.3-11zm19.5 11.4h-12.7l6.4-11.1h12.6l-6.3 11.1zm-6.2-11.6l-6.4-11.1H956l6.4 11.1h-12.7zm20.3 11.6h-.1 0l-13.2-22.8h13l.3.6h0l6.2 10.9h0l.1.1.2.4h0l6.3 10.9H970zm6.8-11.4l6.4-11.1 6.4 11.1-6.4 11.1-6.4-11.1zm19.6 11.4h-12.8l6.4-11.1h12.8l-6.4 11.1zm-6.3-11.6l-6.4-11.1h12.9l6.4 11.1h-12.9zm20.2 11.6l-13.2-22.8h13l6.5 11.4h0l.1.1.2.4h0l6.3 10.9h-12.9zm6.9-11.4l6.4-11.1 6.4 11.1-6.4 11.1-6.4-11.1zm19.6 11.4H1024l6.4-11.1h12.8l-6.4 11.1zm-6.3-11.6l-6.4-11.1h12.9l6.4 11.1h-12.9zm20.2 11.6l-13.2-22.8h13l6.5 11.4h0l.1.1.2.4h0l6.3 10.9h-12.9zm6.9-11.4l6.4-11.1 6.4 11.1-6.4 11.1-6.4-11.1zm19.6 11.4h-12.8l6.4-11.1h12.8l-6.4 11.1zm-6.3-11.6l-6.4-11.1h12.9l6.4 11.1h-12.9zm20.2 11.6l-13.2-22.8h13l6.5 11.4h0l.1.1.2.4h0l6.3 10.9h-12.9zm6.9-11.4l6.4-11.1 6.4 11.1-6.4 11.1-6.4-11.1zm19.6 11.4h-12.8l6.4-11.1h12.8l-6.4 11.1zm-6.3-11.6l-6.4-11.1h12.9l6.4 11.1h-12.9zm20.3 11.6l-13.2-22.8h12.9l6.5 11.4h0l.1.1.2.4h0l6.3 10.9h-12.8zm6.9-11.4l6.3-11 6.4 11-6.4 11-6.3-11zm19.5 11.4h-12.7l6.4-11.1h12.6l-6.3 11.1zm-6.2-11.6l-6.4-11.1h12.8l6.4 11.1h-12.8zm20.2 11.6l-13.2-22.8h12.9l6.5 11.4h0l.1.1.2.4h0l6.3 10.9H1172zm6.9-11.4l6.3-11 6.4 11-6.4 11-6.3-11zm19.5 11.4h-12.7l6.4-11.1h12.6l-6.3 11.1zm-6.2-11.6l-6.4-11.1h12.8l6.4 11.1h-12.8zm20.2 11.6l-13.2-22.8h12.9l6.5 11.4h0l.1.1.2.4h0l6.3 10.9h-12.8zm6.9-11.4l6.3-11 6.4 11-6.4 11-6.3-11zm19.5 11.4h-12.7l6.4-11.1h12.6l-6.3 11.1zm-6.2-11.6l-6.4-11.1h12.8l6.4 11.1h-12.8zm20.2 11.6l-13.2-22.8h12.9l6.5 11.4h0l.1.1.2.4h0l6.3 10.9h-12.8zm6.9-11.4l6.3-11 6.4 11-6.4 11-6.3-11zm19.5 11.4h-12.7l6.4-11.1h12.6l-6.3 11.1zM1273 199l-6.4-11.1h12.8l6.4 11.1H1273zm20.2 11.6l-13.2-22.8h12.9l6.5 11.4h0l.1.1.2.4h0l6.3 10.9h-12.8zm6.9-11.4l6.3-11 6.4 11-6.4 11-6.3-11zm19.5 11.4H1307l6.4-11.1h12.6l-6.4 11.1zm-6.2-11.6l-6.4-11.1h12.8l6.4 11.1h-12.8zm20.2 11.6l-13.2-22.8h12.9l6.5 11.4h0l.1.1.2.4h0l6.3 10.9h-12.8zm6.9-11.4l6.3-11 6.4 11-6.4 11-6.3-11zm19.5 11.4h-12.7l6.4-11.1h12.6l-6.3 11.1zm-6.2-11.6l-6.4-11.1h12.8l6.4 11.1h-12.8zm20.3 11.6l-13.2-22.8h12.7l6.5 11.4h0l.1.1.2.4h0l6.3 10.9h-12.6zm6.9-11.4l6.3-10.9 6.3 10.9-6.3 10.9-6.3-10.9zm19.4 11.4h-12.6l6.4-11.1h12.5l-6.3 11.1zm-6.1-11.6l-6.4-11.1h12.6l6.4 11.1h-12.6zm20.2 11.6l-13.2-22.8h12.7l6.5 11.4h0l.1.1.2.4h0l6.3 10.9h-12.6zm6.9-11.4l6.3-10.9 6.3 10.9-6.3 10.9-6.3-10.9zm19.4 11.4h-12.6l6.4-11.1h12.5l-6.3 11.1zm-6.1-11.6l-6.4-11.1h12.6l6.4 11.1h-12.6zm20.2 11.6l-13.2-22.8h12.9l6.5 11.4h0l.1.1.2.4h0l6.3 10.9h-12.8zm6.9-11.4l6.3-11 6.4 11-6.4 11-6.3-11zm19.6 11.4h-12.7l6.4-11.1h12.6l-6.3 11.1zm-6.3-11.6l-6.4-11.1h12.8l6.4 11.1h-12.8zm20.2 11.6l-13.2-22.8h12.9l6.5 11.4h0l.1.1.2.4h0l6.3 10.9h-12.8zm6.9-11.4l6.3-11 6.4 11-6.4 11-6.3-11zm19.6 11.4h-12.7l6.4-11.1h12.6l-6.3 11.1zm-6.3-11.6l-6.4-11.1h12.8l6.4 11.1h-12.8zm20.2 11.6l-13.2-22.8h12.9l6.5 11.4h0l.1.1.2.4h0l6.3 10.9h-12.8zm6.9-11.4l6.3-11 6.4 11-6.4 11-6.3-11zm19.6 11.4h-12.7l6.4-11.1h12.6l-6.3 11.1zm-6.3-11.6l-6.4-11.1h12.8l6.4 11.1h-12.8zm20.2 11.6l-13.2-22.8h12.9l6.5 11.4h0l.1.1.2.4h0l6.3 10.9h-12.8zm6.9-11.4l6.3-11 6.4 11-6.4 11-6.3-11zm19.6 11.4h-12.7l6.4-11.1h12.6l-6.3 11.1zm-6.3-11.6l-6.4-11.1h12.8l6.4 11.1h-12.8zm20.4 11.6l-13.2-22.8h12.7l6.5 11.4h0l.1.1.2.4h0l6.3 10.9h-12.6zm6.9-11.4l6.3-10.9 6.3 10.9-6.3 10.9-6.3-10.9zm19.4 11.4h-12.6l6.4-11.1h12.5l-6.3 11.1zm-6.1-11.6l-6.4-11.1h12.6l6.4 11.1h-12.6zm20.2 11.6l-13.2-22.8h12.7l6.5 11.4h0l.1.1.2.4h0l6.3 10.9h-12.6zm6.9-11.4l6.3-10.9 6.3 10.9-6.3 10.9-6.3-10.9zm19.4 11.4h-12.6l6.4-11.1h12.5l-6.3 11.1zm-6.2-11.6l-6.4-11.1h12.6l6.4 11.1h-12.6zm20.3 11.6l-13.2-22.8h12.9l6.5 11.4h0l.1.1.2.4h0l6.3 10.9h-12.8zm6.9-11.4l6.3-11 6.4 11-6.4 11-6.3-11zm19.5 11.4h-12.7l6.4-11.1h12.6l-6.3 11.1zm-6.2-11.6l-6.4-11.1h12.8l6.4 11.1h-12.8zm20.2 11.6l-13.2-22.8h12.9l6.5 11.4h0l.1.1.2.4h0l6.3 10.9h-12.8zm6.9-11.4l6.3-11 6.4 11-6.4 11-6.3-11zm19.5 11.4h-12.7l6.4-11.1h12.6l-6.3 11.1zm-6.2-11.6l-6.4-11.1h12.8l6.4 11.1h-12.8zm20.2 11.6l-13.2-22.8h12.9l6.5 11.4h0l.1.1.2.4h0l6.3 10.9h-12.8zm6.9-11.4l6.3-11 6.4 11-6.4 11-6.3-11zm19.5 11.4H1792l6.4-11.1h12.6l-6.3 11.1zm-6.2-11.6l-6.4-11.1h12.8l6.4 11.1h-12.8zm20.2 11.6l-13.2-22.8h12.9l6.5 11.4h0l.1.1.2.4h0l6.3 10.9h-12.8zm6.9-11.4l6.3-11 6.4 11-6.4 11-6.3-11zm19.5 11.4h-12.7l6.4-11.1h12.6l-6.3 11.1zm-6.2-11.6l-6.4-11.1h12.8l6.4 11.1h-12.8zm20.2 11.6l-13.2-22.8h12.9l6.5 11.4h0l.1.1.2.4h0l6.3 10.9h-12.8zm6.9-11.4l6.3-11 6.4 11-6.4 11-6.3-11zm19.5 11.4h-12.7l6.4-11.1h12.6l-6.3 11.1zm-6.2-11.6l-6.4-11.1h12.8l6.4 11.1h-12.8zm20.2 11.6l-13.2-22.8h12.9l6.5 11.4h0l.1.1.2.4h0l6.3 10.9h-12.8zm6.9-11.4l6.3-11 6.4 11-6.4 11-6.3-11zm19.5 11.4h-12.7l6.4-11.1h12.6l-6.3 11.1zm.1-22.8l6.4 11.1h-12.8l-6.4-11.1h12.8zm-13.8 0h0l-6.2 10.8-6.4-11.1h0l6.8-11.8h-.1l6.3-10.8 6.4 11.1-6.8 11.8zm7.5-12.3l-13.2-22.8h12.9l6.5 11.4h0l.1.1.2.4h0l6.3 10.9h-12.8zm19.6-11.4l-6.4 11-6.3-11.1 6.3-11 6.4 11.1zm0-23.4l-6.9 11.9h0l-6.2 10.8-6.4-11.1h0l6.8-11.8h-.1l6.3-10.8 6.5 11zm-13.3-23.3l6.4 11.1h-12.8l-6.4-11.1h12.8zm-13.8 0h0l-6.2 10.8-6.4-11.1h0l6.8-11.8h-.1l6.2-10.8 6.4 11-6.7 11.9zm7.5-12.3l-13.2-22.8h12.9l6.5 11.4h0l.1.1.2.4h0l6.3 10.9h-12.8zm19.6-11.4l-6.4 11-6.3-11.1 6.3-11 6.4 11.1zm0-23.4l-6.9 11.9h0l-6.2 10.8-6.4-11.1h0l6.8-11.8h-.1 0l6.3-10.9 6.5 11.1zM1926 47l6.4 11.1h-12.8l-6.4-11.1h12.8zm-13.8 0h0l-6.2 10.8-6.4-11.1h0l6.8-11.8h0l6.2-10.8 6.4 11-6.8 11.9zm7.5-12.2L1906.5 12h12.9l6.5 11.4h0l.1.1.2.4h0l6.3 10.9h-12.8zm19.6-11.4l-6.4 11-6.3-11.1 6.3-11 6.4 11.1z" opacity=".3" fill="#0c5656"/></svg>